<svg xmlns="http://www.w3.org/2000/svg" viewBox="0 0 750 500"><defs><style>.cls-1,.cls-11{fill:#92e3a9;}.cls-2,.cls-5{fill:#fff;}.cls-2{opacity:0.6;}.cls-3{opacity:0.2;}.cls-4{opacity:0.1;}.cls-10,.cls-11,.cls-12,.cls-14,.cls-15,.cls-16,.cls-5,.cls-8,.cls-9{stroke:#263238;stroke-linecap:round;stroke-linejoin:round;}.cls-6,.cls-7{fill:#212529;}.cls-7{font-size:490.01px;font-family:Arial-BoldMT, Arial;font-weight:700;}.cls-8{fill:#198754;}.cls-9{fill:#737373;}.cls-10,.cls-13{fill:#263238;}.cls-12,.cls-14{fill:none;}.cls-14{stroke-width:2px;}.cls-15{fill:#7d7d7d;}.cls-16{fill:#636363;}</style></defs><g id="Background_Simple" data-name="Background Simple"><path class="cls-1" d="M726.35,203.73C709.45,127,650.63,66.37,570.53,46.07c-21.06-5.33-43.46-8-65.75-5.73C413.69,49.72,305,111,248.65,123.86S126.16,85.31,51.19,164.25-6.47,425.84,143.45,461.63s233.36-52.31,300-33,185.81,11,256.21-45.89C741.35,349,741,270.35,726.35,203.73Z"/><path class="cls-2" d="M726.35,203.73C709.45,127,650.63,66.37,570.53,46.07c-21.06-5.33-43.46-8-65.75-5.73C413.69,49.72,305,111,248.65,123.86S126.16,85.31,51.19,164.25-6.47,425.84,143.45,461.63s233.36-52.31,300-33,185.81,11,256.21-45.89C741.35,349,741,270.35,726.35,203.73Z"/></g><g id="Bricks"><rect class="cls-3" x="374.76" y="221.52" width="30.88" height="12.5"/><rect class="cls-3" x="363" y="177.04" width="30.88" height="12.5"/><rect class="cls-3" x="251.26" y="221.15" width="30.88" height="12.5"/><rect class="cls-3" x="296.1" y="134.19" width="30.88" height="12.5"/><rect class="cls-3" x="329.92" y="134.19" width="30.88" height="12.5"/><rect class="cls-3" x="198.33" y="313.56" width="30.88" height="12.5"/><rect class="cls-3" x="182.16" y="329" width="30.88" height="12.5"/><rect class="cls-4" x="346.09" y="194.32" width="30.88" height="12.5"/><rect class="cls-4" x="392.4" y="264.52" width="30.88" height="12.5"/><rect class="cls-4" x="211.56" y="283.64" width="30.88" height="12.5"/><rect class="cls-4" x="246.85" y="283.64" width="30.88" height="12.5"/><rect class="cls-4" x="249.79" y="265.99" width="30.88" height="12.5"/><rect class="cls-4" x="381.37" y="194.32" width="30.88" height="12.5"/><rect class="cls-3" x="365.85" y="94.8" width="30.88" height="12.5"/><rect class="cls-3" x="354.09" y="50.32" width="30.88" height="12.5"/><rect class="cls-4" x="337.18" y="67.6" width="30.88" height="12.5"/><rect class="cls-4" x="372.47" y="67.6" width="30.88" height="12.5"/><rect class="cls-3" x="289.48" y="327.74" width="30.88" height="12.5"/><rect class="cls-4" x="272.58" y="345.02" width="30.88" height="12.5"/><rect class="cls-4" x="307.86" y="345.02" width="30.88" height="12.5"/><rect class="cls-3" x="139.81" y="172.2" width="30.88" height="12.5"/><rect class="cls-4" x="122.9" y="189.47" width="30.88" height="12.5"/><rect class="cls-4" x="158.18" y="189.47" width="30.88" height="12.5"/><rect class="cls-3" x="127.76" y="265.26" width="30.88" height="12.5"/><rect class="cls-4" x="264.49" y="205.5" width="30.88" height="12.5"/><rect class="cls-4" x="218.18" y="328.27" width="30.88" height="12.5"/><rect class="cls-4" x="313.74" y="118.76" width="30.88" height="12.5"/><rect class="cls-3" x="110.11" y="223.88" width="30.88" height="12.5"/><rect class="cls-4" x="127.76" y="208.44" width="30.88" height="12.5"/><rect class="cls-4" x="206.41" y="133.3" width="30.88" height="12.5"/><rect class="cls-3" x="313.74" y="221.52" width="30.88" height="12.5"/><rect class="cls-3" x="480.15" y="221.52" width="30.88" height="12.5" transform="translate(991.17 455.53) rotate(180)"/><rect class="cls-3" x="491.91" y="177.04" width="30.88" height="12.5" transform="translate(1014.7 366.58) rotate(180)"/><rect class="cls-3" x="603.65" y="221.15" width="30.88" height="12.5" transform="translate(1238.17 454.8) rotate(180)"/><rect class="cls-3" x="558.81" y="134.19" width="30.88" height="12.5" transform="translate(1148.49 280.88) rotate(180)"/><rect class="cls-3" x="524.99" y="134.19" width="30.88" height="12.5" transform="translate(1080.86 280.88) rotate(180)"/><rect class="cls-4" x="508.82" y="194.32" width="30.88" height="12.5" transform="translate(1048.51 401.13) rotate(180)"/><rect class="cls-4" x="462.51" y="264.52" width="30.88" height="12.5" transform="translate(955.89 541.54) rotate(180)"/><rect class="cls-4" x="643.35" y="283.64" width="30.88" height="12.5" transform="translate(1317.57 579.77) rotate(180)"/><rect class="cls-4" x="608.06" y="283.64" width="30.88" height="12.5" transform="translate(1246.99 579.77) rotate(180)"/><rect class="cls-4" x="605.12" y="265.99" width="30.88" height="12.5" transform="translate(1241.11 544.48) rotate(180)"/><rect class="cls-4" x="473.53" y="194.32" width="30.88" height="12.5" transform="translate(977.94 401.13) rotate(180)"/><rect class="cls-3" x="232.74" y="377.47" width="30.88" height="12.5" transform="translate(496.36 767.43) rotate(180)"/><rect class="cls-4" x="249.65" y="394.74" width="30.88" height="12.5" transform="translate(530.18 801.98) rotate(180)"/><rect class="cls-4" x="214.36" y="394.74" width="30.88" height="12.5" transform="translate(459.6 801.98) rotate(180)"/><rect class="cls-3" x="83.29" y="377.47" width="30.88" height="12.5" transform="translate(197.45 767.43) rotate(180)"/><rect class="cls-4" x="100.2" y="394.74" width="30.88" height="12.5" transform="translate(231.27 801.98) rotate(180)"/><rect class="cls-4" x="64.91" y="394.74" width="30.88" height="12.5" transform="translate(160.7 801.98) rotate(180)"/><rect class="cls-3" x="565.42" y="327.74" width="30.88" height="12.5" transform="translate(1161.72 667.98) rotate(180)"/><rect class="cls-4" x="582.33" y="345.02" width="30.88" height="12.5" transform="translate(1195.54 702.53) rotate(180)"/><rect class="cls-4" x="547.04" y="345.02" width="30.88" height="12.5" transform="translate(1124.96 702.53) rotate(180)"/><rect class="cls-4" x="590.42" y="205.5" width="30.88" height="12.5" transform="translate(1211.71 423.5) rotate(180)"/><rect class="cls-4" x="636.73" y="328.27" width="30.88" height="12.5" transform="translate(1304.33 669.03) rotate(180)"/><rect class="cls-4" x="486.12" y="345.84" width="30.88" height="12.5" transform="translate(1003.11 704.17) rotate(180)"/><rect class="cls-4" x="450.83" y="345.84" width="30.88" height="12.5" transform="translate(932.54 704.17) rotate(180)"/><rect class="cls-3" x="408.19" y="389.94" width="30.88" height="12.5" transform="translate(847.26 792.38) rotate(180)"/><rect class="cls-4" x="671.97" y="407.22" width="30.88" height="12.5" transform="translate(1374.81 826.94) rotate(180)"/><rect class="cls-4" x="671.97" y="375.26" width="30.88" height="12.5" transform="translate(1374.81 763.01) rotate(180)"/><rect class="cls-4" x="687.79" y="390.81" width="30.88" height="12.5" transform="translate(1406.45 794.11) rotate(180)"/><rect class="cls-4" x="652.37" y="390.81" width="30.88" height="12.5" transform="translate(1335.61 794.11) rotate(180)"/><rect class="cls-4" x="479.5" y="390.47" width="30.88" height="12.5" transform="translate(989.88 793.43) rotate(180)"/><rect class="cls-3" x="519.96" y="431.91" width="30.88" height="12.5"/><rect class="cls-4" x="503.05" y="449.19" width="30.88" height="12.5"/><rect class="cls-4" x="538.34" y="449.19" width="30.88" height="12.5"/><rect class="cls-3" x="622.76" y="420.89" width="30.88" height="12.5"/><rect class="cls-4" x="605.85" y="449.19" width="30.88" height="12.5"/><rect class="cls-4" x="641.14" y="449.19" width="30.88" height="12.5"/><rect class="cls-4" x="69.29" y="461.67" width="30.88" height="12.5"/><rect class="cls-4" x="170.58" y="445.25" width="30.88" height="12.5"/><rect class="cls-4" x="113.56" y="429.7" width="30.88" height="12.5"/><rect class="cls-4" x="97.74" y="445.25" width="30.88" height="12.5"/><rect class="cls-4" x="133.16" y="445.25" width="30.88" height="12.5"/><rect class="cls-4" x="541.16" y="118.76" width="30.88" height="12.5" transform="translate(1113.2 250.01) rotate(180)"/><rect class="cls-4" x="524.75" y="66.06" width="30.88" height="12.5" transform="translate(1080.37 144.61) rotate(180)"/><rect class="cls-4" x="648.49" y="133.3" width="30.88" height="12.5" transform="translate(1327.86 279.1) rotate(180)"/><rect class="cls-3" x="541.16" y="221.52" width="30.88" height="12.5" transform="translate(1113.2 455.53) rotate(180)"/><rect class="cls-3" x="196.19" y="48.45" width="30.88" height="12.5"/><rect class="cls-4" x="71.45" y="137" width="30.88" height="12.5"/><rect class="cls-4" x="109.95" y="147.78" width="30.88" height="12.5"/><rect class="cls-4" x="34.49" y="160.1" width="30.88" height="12.5"/><rect class="cls-4" x="90.27" y="160.66" width="30.88" height="12.5"/><rect class="cls-3" x="177.3" y="65.97" width="30.88" height="12.5"/><rect class="cls-3" x="508.06" y="48.45" width="30.88" height="12.5"/><rect class="cls-3" x="489.16" y="65.97" width="30.88" height="12.5"/></g><g id="Pipes"><path class="cls-5" d="M91.21,213.38H11.56v-13H84.71V12.2h13V206.88A6.5,6.5,0,0,1,91.21,213.38Z"/><path class="cls-5" d="M694.25,7.74V82.17H97.43v13H673.37v314.2H519.75a6.5,6.5,0,0,0-6.5,6.5v47.86h13V422.37H673.37v44h13V95.17h14.38a6.5,6.5,0,0,0,6.5-6.5V7.74Z"/><rect class="cls-5" x="694.44" y="47.8" width="12.7" height="5.9"/><rect class="cls-5" x="562.8" y="412.98" width="12.7" height="5.9" transform="translate(985.08 -153.22) rotate(90)"/><rect class="cls-5" x="575.65" y="412.98" width="12.7" height="5.9" transform="translate(997.93 -166.07) rotate(90)"/><rect class="cls-5" x="29.94" y="433.07" width="209.64" height="13"/><rect class="cls-5" x="29.94" y="415.15" width="209.64" height="13"/><rect class="cls-5" x="119.38" y="415.4" width="8.97" height="12.63"/><rect class="cls-5" x="138.06" y="415.4" width="8.97" height="12.63"/><rect class="cls-5" x="119.38" y="433.31" width="8.97" height="12.63"/><rect class="cls-5" x="138.06" y="433.31" width="8.97" height="12.63"/></g><g id="Gears"><path class="cls-5" d="M268.08,172.49V155.34H257.64a50.41,50.41,0,0,0-2.22-8.34l9-5.2L255.87,127l-9,5.22a50.21,50.21,0,0,0-6.1-6.1l5.22-9-14.85-8.57-5.21,9a48.52,48.52,0,0,0-8.34-2.22V104.84H200.4v10.44a49.42,49.42,0,0,0-8.34,2.21l-5.21-9L172,117l5.23,9a48.82,48.82,0,0,0-6.1,6.1l-9-5.22-8.57,14.85,9,5.21a49.42,49.42,0,0,0-2.21,8.34H149.89v17.14h10.45a49.42,49.42,0,0,0,2.21,8.34l-9,5.21,8.57,14.85,9.05-5.22a50,50,0,0,0,6.09,6.09l-5.21,9,14.84,8.58,5.22-9a48.93,48.93,0,0,0,8.34,2.21V223h17.14V212.58a49.45,49.45,0,0,0,8.34-2.22l5.21,9L246,210.81l-5.22-9a50.85,50.85,0,0,0,6.09-6.1l9,5.22L264.45,186l-9-5.21a49.42,49.42,0,0,0,2.21-8.34ZM209,195.87a31.95,31.95,0,1,1,31.94-31.94A31.94,31.94,0,0,1,209,195.87Z"/><path class="cls-5" d="M190.13,329.91V312.77H179.69a49.45,49.45,0,0,0-2.22-8.34l9-5.21-8.57-14.85-9,5.22a50.85,50.85,0,0,0-6.1-6.09l5.22-9-14.85-8.57-5.21,9a49.42,49.42,0,0,0-8.34-2.21V262.26H122.45V272.7a49.45,49.45,0,0,0-8.34,2.22l-5.21-9-14.85,8.57,5.23,9a50.21,50.21,0,0,0-6.1,6.1l-9-5.22-8.57,14.85,9,5.21a49.42,49.42,0,0,0-2.21,8.34H71.94v17.15H82.39a49.42,49.42,0,0,0,2.21,8.34l-9,5.21,8.57,14.85,9-5.23a49.42,49.42,0,0,0,6.09,6.1l-5.21,9,14.84,8.57,5.22-9a48.93,48.93,0,0,0,8.34,2.21v10.44h17.14V370a49.42,49.42,0,0,0,8.34-2.21l5.21,9L168,368.24l-5.22-9.05a49.42,49.42,0,0,0,6.09-6.1l9,5.22,8.57-14.84-9-5.22a48.93,48.93,0,0,0,2.21-8.34ZM131,353.3A31.95,31.95,0,1,1,163,321.35,31.94,31.94,0,0,1,131,353.3Z"/><path class="cls-5" d="M625.24,327.46V315.89h-7a33.06,33.06,0,0,0-1.49-5.63l6.09-3.52-5.79-10-6.1,3.52a33.32,33.32,0,0,0-4.12-4.11L610.3,290l-10-5.78-3.52,6.09a33.06,33.06,0,0,0-5.63-1.49v-7H579.56v7a32.84,32.84,0,0,0-5.63,1.5l-3.52-6.09-10,5.78,3.52,6.11a33.24,33.24,0,0,0-4.11,4.11l-6.11-3.52-5.78,10,6.09,3.51a33.33,33.33,0,0,0-1.5,5.63h-7v11.58h7a34,34,0,0,0,1.49,5.63l-6.09,3.51,5.79,10,6.11-3.53a33.32,33.32,0,0,0,4.11,4.12l-3.52,6.1,10,5.79,3.52-6.1a33.08,33.08,0,0,0,5.63,1.5v7.05h11.58v-7.05a33.33,33.33,0,0,0,5.63-1.5l3.51,6.09,10-5.79-3.53-6.1a33.4,33.4,0,0,0,4.12-4.12l6.1,3.52,5.79-10-6.1-3.52a33.08,33.08,0,0,0,1.5-5.63Zm-39.89,15.79a21.57,21.57,0,1,1,21.57-21.57A21.57,21.57,0,0,1,585.35,343.25Z"/><path class="cls-5" d="M568.67,163.51V151.94h-7a33.08,33.08,0,0,0-1.5-5.63l6.09-3.52-5.78-10-6.11,3.53a33.4,33.4,0,0,0-4.12-4.12l3.53-6.1-10-5.79-3.52,6.09a33.76,33.76,0,0,0-5.63-1.49v-7H523v7a33.08,33.08,0,0,0-5.63,1.5l-3.52-6.09-10,5.79,3.52,6.1a34,34,0,0,0-4.11,4.12l-6.1-3.53-5.79,10,6.09,3.52a34,34,0,0,0-1.49,5.63h-7.05v11.57h7.05a33.08,33.08,0,0,0,1.5,5.63l-6.09,3.52,5.79,10,6.1-3.52a34,34,0,0,0,4.12,4.11l-3.53,6.1,10,5.79,3.52-6.09a32.82,32.82,0,0,0,5.63,1.49v7h11.57v-7a33.08,33.08,0,0,0,5.63-1.5l3.52,6.09,10-5.78-3.52-6.11a34,34,0,0,0,4.11-4.12l6.1,3.53,5.79-10-6.09-3.52a32.82,32.82,0,0,0,1.49-5.63ZM528.78,179.3a21.57,21.57,0,1,1,21.56-21.56A21.56,21.56,0,0,1,528.78,179.3Z"/></g><g id="Text"><path class="cls-6" d="M149.54,390.42V310.24H45.18V258.9L134.69,46.79h76.37V260.18h33.09v50.06H211.06v80.18ZM96.94,260.18h52.6V114.24Z"/><path class="cls-6" d="M211.06,390.92H149.54a.51.51,0,0,1-.5-.5V310.74H45.18a.51.51,0,0,1-.5-.5V258.9a.65.65,0,0,1,0-.19L134.23,46.59a.51.51,0,0,1,.46-.3h76.37a.5.5,0,0,1,.5.5V259.68h32.59a.5.5,0,0,1,.5.5v50.06a.51.51,0,0,1-.5.5H211.56v79.68A.51.51,0,0,1,211.06,390.92Zm-61-1h60.52V310.24a.5.5,0,0,1,.5-.5h32.59V260.68H211.06a.5.5,0,0,1-.5-.5V47.29H135L45.68,259v50.74H149.54a.5.5,0,0,1,.5.5Zm-.5-129.24H96.94a.49.49,0,0,1-.41-.22.48.48,0,0,1-.06-.45l52.6-145.94a.51.51,0,0,1,.56-.32.49.49,0,0,1,.41.49V260.18A.5.5,0,0,1,149.54,260.68Zm-51.89-1H149V117.1Z"/><path class="cls-6" d="M367.17,396.35q-31,0-51.33-12.72a79.1,79.1,0,0,1-30.54-35q-10.19-22.28-10.19-51.55v-154q0-30.12,9.76-52.82A76.2,76.2,0,0,1,315,54.85q20.37-12.74,52.18-12.73,31.4,0,51.55,12.73a76.64,76.64,0,0,1,29.91,35.42q9.75,22.7,9.75,52.82v154q0,29.28-10.18,51.55a79.16,79.16,0,0,1-30.54,35Q397.29,396.35,367.17,396.35Zm0-57.69q11.46,0,16.55-7.21a41.61,41.61,0,0,0,6.79-17.18,111.72,111.72,0,0,0,1.69-18.46V144.36a135.16,135.16,0,0,0-1.48-19.51,41.22,41.22,0,0,0-6.58-17.61q-5.08-7.41-17-7.42T350,107.24a39.58,39.58,0,0,0-6.79,17.61,135.16,135.16,0,0,0-1.48,19.51V295.81a109.67,109.67,0,0,0,1.7,18.46,38.25,38.25,0,0,0,7.21,17.18Q356.14,338.67,367.17,338.66Z"/><path class="cls-6" d="M367.17,396.85c-20.64,0-38-4.3-51.59-12.8a80,80,0,0,1-30.74-35.21c-6.78-14.85-10.23-32.26-10.23-51.76v-154c0-20.06,3.3-37.9,9.8-53a77.07,77.07,0,0,1,30.32-35.65c13.59-8.49,31.24-12.8,52.44-12.8,20.93,0,38.36,4.31,51.81,12.81a77.36,77.36,0,0,1,30.1,35.64c6.51,15.13,9.8,33,9.8,53v154c0,19.5-3.44,36.91-10.22,51.76a80,80,0,0,1-30.74,35.21C404.33,392.55,387.25,396.85,367.17,396.85Zm0-354.23c-21,0-38.48,4.26-51.91,12.65a76,76,0,0,0-29.93,35.2c-6.45,15-9.72,32.69-9.72,52.62v154c0,19.36,3.41,36.63,10.14,51.34a79,79,0,0,0,30.36,34.78c13.43,8.4,30.61,12.65,51.06,12.65,19.9,0,36.79-4.25,50.22-12.65a79,79,0,0,0,30.36-34.78c6.72-14.71,10.13-32,10.13-51.34v-154c0-19.91-3.27-37.62-9.71-52.62a76.46,76.46,0,0,0-29.72-35.2C405.16,46.88,387.91,42.62,367.17,42.62Zm0,296.54c-7.49,0-13.19-2.49-16.94-7.41a39.07,39.07,0,0,1-7.31-17.4,111.25,111.25,0,0,1-1.7-18.54V144.36a135.66,135.66,0,0,1,1.49-19.59A40.16,40.16,0,0,1,349.59,107c3.61-5.06,9.53-7.63,17.58-7.63s13.9,2.57,17.38,7.64a41.85,41.85,0,0,1,6.66,17.81,136.72,136.72,0,0,1,1.49,19.59V295.81a112,112,0,0,1-1.7,18.54,42.17,42.17,0,0,1-6.87,17.39C380.65,336.66,375,339.16,367.17,339.16Zm0-238.84c-7.71,0-13.35,2.42-16.77,7.21a39.16,39.16,0,0,0-6.7,17.39,135,135,0,0,0-1.48,19.44V295.81a110.31,110.31,0,0,0,1.69,18.37,38,38,0,0,0,7.11,17c3.56,4.66,9,7,16.15,7,7.44,0,12.86-2.36,16.14-7a41,41,0,0,0,6.7-17,111.07,111.07,0,0,0,1.69-18.37V144.36a136,136,0,0,0-1.48-19.44,40.94,40.94,0,0,0-6.49-17.4C380.45,102.74,374.88,100.32,367.17,100.32Z"/><text class="cls-7" transform="translate(462.18 394.81)">1</text><path class="cls-6" d="M291.75,467.29V415.48h18.74v3.78H296.67V438.7h11.26v3.58H296.67v21.37h13.94v3.64Z"/><path class="cls-6" d="M317.27,467.29V415.48H329a15.63,15.63,0,0,1,7.65,1.57,9,9,0,0,1,4,4.54,18.64,18.64,0,0,1,1.22,7.07,22.72,22.72,0,0,1-.64,5.44,10.51,10.51,0,0,1-2.18,4.35,7.46,7.46,0,0,1-4.35,2.36l7.94,26.48h-4.74l-7.61-25.46h-8.12v25.46Zm4.86-29h6.59a9.82,9.82,0,0,0,5-1.08,6,6,0,0,0,2.56-3.2,15.77,15.77,0,0,0,.77-5.31q0-4.8-1.67-7.16c-1.11-1.58-3.3-2.37-6.59-2.37h-6.71Z"/><path class="cls-6" d="M350,467.29V415.48h11.7a15.56,15.56,0,0,1,7.64,1.57,8.92,8.92,0,0,1,4,4.54,18.64,18.64,0,0,1,1.22,7.07,22.72,22.72,0,0,1-.64,5.44,10.51,10.51,0,0,1-2.18,4.35,7.46,7.46,0,0,1-4.35,2.36l7.93,26.48h-4.73L363,441.83h-8.12v25.46Zm4.86-29h6.58a9.86,9.86,0,0,0,5.06-1.08,6.08,6.08,0,0,0,2.56-3.2,15.79,15.79,0,0,0,.76-5.31q0-4.8-1.66-7.16c-1.11-1.58-3.3-2.37-6.59-2.37h-6.71Z"/><path class="cls-6" d="M395,467.93q-5.12,0-8-2a10.68,10.68,0,0,1-4.09-5.63,26.59,26.59,0,0,1-1.18-8.29V430.51a24.51,24.51,0,0,1,1.24-8.22,10.51,10.51,0,0,1,4.16-5.4,17.34,17.34,0,0,1,15.86,0,10.36,10.36,0,0,1,4.13,5.4,25.07,25.07,0,0,1,1.21,8.22v21.56a26.28,26.28,0,0,1-1.18,8.25,10.74,10.74,0,0,1-4.06,5.6Q400.16,467.93,395,467.93Zm0-3.9a8.51,8.51,0,0,0,5.25-1.38,7,7,0,0,0,2.46-3.83,21.78,21.78,0,0,0,.67-5.73V429.62a21.36,21.36,0,0,0-.67-5.69,6.73,6.73,0,0,0-2.46-3.75,11.09,11.09,0,0,0-10.46,0,6.63,6.63,0,0,0-2.5,3.75,21.78,21.78,0,0,0-.67,5.69v23.47a22.21,22.21,0,0,0,.67,5.73,6.87,6.87,0,0,0,2.5,3.83A8.48,8.48,0,0,0,395,464Z"/><path class="cls-6" d="M416.34,467.29V415.48h11.71a15.56,15.56,0,0,1,7.64,1.57,8.92,8.92,0,0,1,4,4.54,18.64,18.64,0,0,1,1.22,7.07,22.72,22.72,0,0,1-.64,5.44,10.63,10.63,0,0,1-2.18,4.35,7.46,7.46,0,0,1-4.35,2.36l7.93,26.48h-4.73l-7.61-25.46H421.2v25.46Zm4.86-29h6.59a9.86,9.86,0,0,0,5.06-1.08,6,6,0,0,0,2.55-3.2,15.52,15.52,0,0,0,.77-5.31q0-4.8-1.66-7.16t-6.59-2.37H421.2Z"/></g><g id="Character"><path class="cls-8" d="M275.15,218.79l3.72,53.51-23.2-10.83L249.79,285s49.8,27.83,54.75,26.91-7.42-109.19-7.42-109.19Z"/><path class="cls-8" d="M308.59,347.87s26.71-9.18,37.15-17.94-44.25-114.79-44.25-114.79S302.33,312.4,308.59,347.87Z"/><path class="cls-9" d="M420.41,313.62l-3.09.46a3,3,0,0,1,0,.46c-.24,4-21.7,14.54-36.86,20.26-3.31,2.56-7.75,3.86-13.33,3.86H367c-11.69,1.13-34.17-4-39.25-7.5l-5.48,56h0c.88.44,1.78.85,2.69,1.26q17.81,7.89,42.18,7.9,28.14,0,47.76-11.1l.28-.16c.83-.48,1.64-1,2.45-1.46s1.91-1.23,2.84-1.87l.85-.59,1.94-1.4.9-.69c.64-.49,1.27-1,1.88-1.49l.76-.62c.85-.71,1.69-1.43,2.5-2.18h0C425.84,350,420.41,313.62,420.41,313.62Z"/><path class="cls-5" d="M300.65,248.55S325.39,309,325.7,311.18s-2.45,15.89,1.53,19.55,30.55,9.78,41.85,7.64,48-18.64,48.28-23.83S381,207.91,376.42,195.69s-23.22-16.5-35.75-15.28-42.77,9.17-48.27,16.81S300.65,248.55,300.65,248.55Z"/><path class="cls-5" d="M302.78,192.33s-3,27.8-1.22,33.61,10.17,21.77,10.17,21.77,14-17.5,16.72-19.33,28.11,14.36,28.11,14.36.91-17.41-2.75-31.77-10.09-29.95-12.22-32.7-2.14,7.34-10.09,14.06S302.78,192.33,302.78,192.33Z"/><path class="cls-5" d="M300.53,197.17a108.27,108.27,0,0,0,11.54,20.45,100.65,100.65,0,0,0,18.8,19.46s8.58-22.1,10.89-35.29-1.65-26.39-1.65-26.39-1.65,19.79-8.58,23.75S300.53,197.17,300.53,197.17Z"/><path class="cls-10" d="M318.64,200.26a140.56,140.56,0,0,1-18.11-3.09,108.27,108.27,0,0,0,11.54,20.45c.77,1.08,1.56,2.12,2.37,3.15L328.08,205Z"/><path class="cls-11" d="M340.11,175.4s10,40.15,13.7,70.4,12.52,119.76,12.52,119.76,27.5-7.94,41.86-18.33,18.94-17.41,18.94-17.41-23.52-103-23.52-104.49,2.44-16.81,2.44-16.81S447.6,189,463.49,177.05s11.92-18.33,4.28-21.38-31.47.3-44.61,4-19.86,6.11-19.86,6.11-14.66-1.22-28.11,1.83S340.11,175.4,340.11,175.4Z"/><path class="cls-5" d="M361.21,278.12l-1.6,4.95"/><path class="cls-12" d="M365.92,210.12l4.69,3s-1.54,24.34-3.67,39.71a121.65,121.65,0,0,1-4.46,21.2"/><path class="cls-12" d="M357.62,181.13c3.07,5.65,7.49,14,7.49,15.17,0,1.83-4.58,10.39-4.58,10.39l2.86,1.82"/><path class="cls-5" d="M354.72,175.86l1.25,2.25"/><path class="cls-12" d="M411,310.45a74.21,74.21,0,0,1-15.62,8.06c-14.36,5.5-16.81,6.42-16.81,6.42l2.14,7.33s25.06-4.58,36.67-17.72"/><path class="cls-5" d="M416.13,306.29a23.21,23.21,0,0,1-2.05,1.83"/><polyline class="cls-12" points="411.53 192.3 406.05 208.52 418.88 189.27"/><line class="cls-5" x1="414" y1="185" x2="412.73" y2="188.75"/><path class="cls-11" d="M302.78,192.33s3.06,55.61,6.42,82.8,8.86,94.41,8.86,94.41-10.69-.92-17.72-9.48a97.86,97.86,0,0,1-10.39-15V284.6c0-2.45-4.89-30.25-9.47-44s-11.3-29.63-7.33-36.36,16.5-16.8,21.08-18S302.48,186.22,302.78,192.33Z"/><path class="cls-5" d="M301.07,262.17c1.73,5.39,3.4,10.19,4.77,13.26"/><path class="cls-12" d="M290.62,202.92c-.51,4-.76,7-.36,7.44,1.22,1.22,6.11,5.49,6.11,5.49s-6.11,7.64-5.2,11.62c.61,2.6,4.64,17.75,8.72,30.94"/><path class="cls-5" d="M293.92,182.55s-1.61,8.76-2.75,16.45"/><line class="cls-5" x1="297.49" y1="323.8" x2="292.09" y2="321.26"/><polyline class="cls-12" points="292.09 313.01 307.06 319.12 307.06 328.29 300.21 325.07"/><path class="cls-5" d="M280,155.57l5.22,12.79s-6.79-7.05-8.36-.78,3.14,13.58,6.27,13.58,6.79.26,6.79.26,11,19.32,17.75,23,15.93,6.79,21.68,3.65,8.88-11.75,10.7-18.28.53-26.11.53-26.11L331.14,125s6.52-2.35,6.52-6.79-15.14-5.74-15.14-5.74,6-7-1.57-8.1-32.12,13.58-32.9,14.1,4.18-9.14-2.09-5.74-13.58,20.1-12.79,24S280,155.57,280,155.57Z"/><path class="cls-9" d="M322.52,112.49s6-7-1.57-8.1-32.12,13.58-32.9,14.1,4.18-9.14-2.09-5.74-13.58,20.1-12.79,24,6.79,18.8,6.79,18.8l5.22,12.79s6,5.49,3.92,1.31-6.27-13.58-5.23-14.88,6.27-3.4,6.53-6.27-5-11.23-3.39-13.32,23.76,1.83,27.68-.52-1.05-8.09-1.05-8.09l17.5-1.57s6.52-2.35,6.52-6.79S322.52,112.49,322.52,112.49Z"/><path class="cls-5" d="M325.91,177s-2.35,4.44-6,4.7"/><path class="cls-13" d="M309.72,165c.73,1.57.42,3.26-.69,3.78s-2.6-.34-3.33-1.91-.42-3.26.69-3.78S309,163.4,309.72,165Z"/><ellipse class="cls-13" cx="328.34" cy="161.2" rx="2.22" ry="3.13" transform="translate(-21.27 53.64) rotate(-9.05)"/><path class="cls-5" d="M319.91,191.6a14.29,14.29,0,0,0,7.57-2.35"/><path class="cls-14" d="M296.67,161.57s3.65-5.22,13.58-2.08"/><path class="cls-14" d="M323,156.61a10,10,0,0,1,8.88-6.52"/><path class="cls-5" d="M337.66,151.39s1.83-4.18,3.92-1.57,2.87,7.84,1.57,11.23-2.09,6.27-2.09,6.27l-.52-3.66Z"/><path class="cls-5" d="M385.71,131S357,125.8,355.16,125.8s-23.24,3.92-26.37,5.22-26.9,8.1-26.38,9.67,3.4,2.08,3.4,2.08.52,2.35,8.88,3.4,27.93-1.57,28.2.26a4.55,4.55,0,0,1-1.31,3.39l2.35,4.18s8.62-1.3,11.49-3.39,11-8.62,11-8.62l17.49,1.31Z"/><path class="cls-5" d="M322,134.68s-11.75,5-13.58,6,3.39,3.13,6.53,2.61,15.14-5.23,17-5.75,10.18,1.57,16.19,2.35a20,20,0,0,0,11.23-1.56"/><path class="cls-11" d="M456.46,172.78a46.86,46.86,0,0,1-20.16,0c-11-2.45-40-16.81-40-16.81l-19.86-5.8L381,127s50.11,6.11,64.16,11.3,34.52,17.11,33.91,21.39-11.91,13.44-11.91,13.44"/><path class="cls-12" d="M284.36,272.61s18.39,21.06,33.9,14,23.17-52.48,23.17-52.48"/><path class="cls-12" d="M260.23,256.71s14.56,18.19,33.9,16.47,25.86-24.13,25.66-35.24"/><rect class="cls-15" x="257.5" y="243.5" width="6.48" height="30.38" transform="translate(95.96 -69.57) rotate(18.57)"/><rect class="cls-10" x="260.9" y="241" width="10.05" height="4.47" transform="translate(91.31 -72.03) rotate(18.57)"/><rect class="cls-15" x="271.05" y="248.05" width="6.48" height="30.38" transform="translate(98.12 -73.65) rotate(18.57)"/><rect class="cls-10" x="274.45" y="245.55" width="10.05" height="4.47" transform="translate(93.46 -76.11) rotate(18.57)"/><rect class="cls-10" x="255.77" y="252.7" width="21" height="23.23" transform="matrix(0.95, 0.32, -0.32, 0.95, 98.04, -71.04)"/><polygon class="cls-15" points="254.32 286.69 235.75 280.45 245.59 264.2 256.28 267.79 254.32 286.69"/><rect class="cls-16" x="231.93" y="283.03" width="19.59" height="20.79" transform="translate(106.03 -61.7) rotate(18.57)"/><rect class="cls-16" x="245.76" y="245.98" width="16.82" height="20.79" transform="translate(94.88 -67.6) rotate(18.57)"/><polygon class="cls-15" points="281.42 295.8 262.85 289.56 272.7 273.31 283.39 276.9 281.42 295.8"/><rect class="cls-16" x="259.03" y="292.14" width="19.59" height="20.79" transform="translate(110.35 -69.86) rotate(18.57)"/><rect class="cls-16" x="272.87" y="255.08" width="16.82" height="20.79" transform="translate(99.19 -75.76) rotate(18.57)"/><path class="cls-5" d="M243.2,242.53s-2.16,3.56-1.52,4.58,6.87,4.45,7.76,4.71,3.31-1,3.18-2.68-5-5.21-6.49-6.1S243.84,242,243.2,242.53Z"/><path class="cls-5" d="M239.78,249.57s-1.05,4-.14,4.83,7.86,2.28,8.79,2.26,2.87-1.93,2.27-3.47-6.26-3.57-8-4S240.24,248.9,239.78,249.57Z"/><path class="cls-5" d="M237.87,256.57s-1.05,4-.14,4.83,7.86,2.28,8.79,2.26,2.87-1.93,2.27-3.47-6.25-3.57-8-4S238.33,255.9,237.87,256.57Z"/><path class="cls-5" d="M238.76,263.31s-1,4-.14,4.83,7.86,2.28,8.79,2.27,2.87-1.93,2.28-3.48-6.26-3.56-8-4S239.22,262.64,238.76,263.31Z"/></g></svg>