<?xml version="1.0" encoding="utf-8"?>
<!-- Generator: Adobe Illustrator 26.0.0, SVG Export Plug-In . SVG Version: 6.00 Build 0)  -->
<svg version="1.1" id="Capa_1" xmlns="http://www.w3.org/2000/svg" xmlns:xlink="http://www.w3.org/1999/xlink" x="0px" y="0px"
	 viewBox="0 0 418.7 379.1" style="enable-background:new 0 0 418.7 379.1;" xml:space="preserve">
<style type="text/css">
	.st0{fill:#E2E2E2;}
	.st1{fill:none;stroke:#263238;stroke-width:1.17;stroke-linecap:round;stroke-linejoin:round;}
	.st2{fill:#212529;stroke:#212529;stroke-width:1.17;stroke-linecap:round;stroke-linejoin:round;}
	.st3{fill:#4C4C4C;stroke:#212529;stroke-width:1.17;stroke-linecap:round;stroke-linejoin:round;}
	.st4{fill:#2F4F4F;stroke:#212529;stroke-width:1.17;stroke-linecap:round;stroke-linejoin:round;}
	.st5{fill:#FFFFFF;stroke:#263238;stroke-width:1.17;stroke-linecap:round;stroke-linejoin:round;}
	.st6{fill:#FFFFFF;stroke:#212529;stroke-width:1.17;stroke-linecap:round;stroke-linejoin:round;}
	.st7{fill:#212529;}
	.st8{fill:#CCCCCC;stroke:#212529;stroke-width:1.17;stroke-linecap:round;stroke-linejoin:round;}
	.st9{fill:#213837;stroke:#212529;stroke-width:1.17;stroke-linecap:round;stroke-linejoin:round;}
	.st10{fill:none;stroke:#212529;stroke-width:1.17;stroke-linecap:round;stroke-linejoin:round;}
	.st11{fill:#212529;stroke:#212529;stroke-width:1.17;stroke-miterlimit:10;}
	.st12{fill:#FFFFFF;stroke:#263238;stroke-width:1.17;stroke-miterlimit:10;}
	.st13{fill:#385E5D;stroke:#212529;stroke-width:1.17;stroke-linecap:round;stroke-linejoin:round;}
	.st14{fill:none;stroke:#212529;stroke-width:1.17;stroke-miterlimit:10;}
</style>
<g id="Background_Simple">
	<path class="st0" d="M16.7,202.8c0,0,2.3,72,62.4,120s143.4,51.4,210.8,56s119.2-33.6,127-91.3s-43.7-74.6-71.7-140.3
		s-25.4-87.3-84.6-127.7S109,3.8,60.5,73S16.7,202.8,16.7,202.8z"/>
</g>
<g id="Padlock">
	<path class="st1" d="M44.8,108.7V83c0-18.2,15.2-33.1,33.8-33.1s33.8,14.8,33.8,33.1v25.8h13.5V83c0-25.5-21.2-46.3-47.3-46.3
		S31.4,57.4,31.4,83v25.8H44.8z"/>
	<rect x="26.4" y="108.9" class="st1" width="103.2" height="85.4"/>
	<path class="st1" d="M88.7,144.4c-0.2-6.2-5.4-11.1-11.6-10.9c-5.9,0.2-10.7,5-10.9,10.9c0,4.1,2.3,7.8,5.9,9.7l-1.9,19.4h14.4
		L82.8,154C86.4,152.2,88.6,148.4,88.7,144.4z"/>
</g>
<g id="Character">
	<polygon class="st2" points="193.9,197 168.2,195.3 168.2,194.9 165,195.1 161.9,194.9 161.9,195.3 136.2,197 117.2,352.8 
		136.2,352.8 164.4,228.6 165.6,228.6 193.9,352.8 212.8,352.8 	"/>
	<path class="st3" d="M117.2,352.8l-4.6,7.2l-14.3,6.3c-1.5,0.8-2.5,2.5-2.5,4.2v5.5h40.8c0.2-2.9,0.2-5.9,0-8.8
		c-0.4-4.2-0.4-14.3-0.4-14.3H117.2z"/>
	<path class="st2" d="M95.7,371.4v4.6h40.8c0,0,0.2-2,0.2-4.6H95.7z"/>
	<path class="st3" d="M212.7,352.8l4.6,7.2l14.3,6.3c1.5,0.8,2.5,2.5,2.5,4.2v5.5h-40.8c-0.2-2.9-0.2-5.9,0-8.8
		c0.4-4.2,0.4-14.3,0.4-14.3H212.7z"/>
	<path class="st2" d="M234.2,371.4v4.6h-40.9c0,0-0.2-2-0.2-4.6H234.2z"/>
	<path class="st4" d="M125.3,124.5c0,0-30,42.2-30,45.2s4.8,27,12.4,29.2s11.8-1.7,13.2-9.5s-3.4-19.1-3.4-19.1l14-12.6L125.3,124.5
		z"/>
	<path class="st5" d="M119.5,188.3c0,0,8.7-1.4,11-0.9s3.9,5.9,3.9,5.9s0.8,7.9-0.6,9.5s-8.1,3.6-10.9,4.2s-8.7-5.9-11-9.8
		S113.6,186.6,119.5,188.3z"/>
	<polygon class="st4" points="131.6,122.6 125.3,124.6 135.2,190.9 194.3,190.9 203.3,124.9 195.3,121.9 165.6,115.4 	"/>
	<polygon class="st2" points="197.6,144.8 196.2,154.4 185.9,156.9 175.4,152.6 176.1,144.1 	"/>
	<path class="st3" d="M184.7,152.6c0-1,0.8-1.8,1.8-1.8s1.8,0.8,1.8,1.8s-0.8,1.8-1.8,1.8C185.6,154.4,184.7,153.6,184.7,152.6z"/>
	<polygon class="st2" points="159.3,127.6 164.9,134.1 157.8,179.2 165.2,191.1 174,178.7 166.6,134.3 172.9,128.2 166.2,119.6 	"/>
	<polygon class="st2" points="154,116.3 128.5,122.6 129.3,125.7 154.1,118.8 	"/>
	<polygon class="st2" points="174.8,115.6 200.2,121.9 199.5,124.9 174.6,118.1 	"/>
	<path class="st4" d="M200.2,121.9c0,0,9.6,2.2,15.5,5.5c5.9,3.4,7.3,10.9,3.9,19.4c-3.4,8.4-13.8,7.3-18.5,5
		c-4.8-2.3-6.2-10.7-5.3-14.3"/>
	<polygon class="st4" points="155.1,113.1 152.2,115 153,134.3 165.4,125.5 178.4,134.5 179.6,115.4 176.1,112.5 	"/>
	<path class="st2" d="M180.2,90.1c0,0,7.1-1.7,8.4-8.8c1.3-7.1-11.4-15.7-20.2-17.2s-21.8,7.6-23.9,13.9s6.1,12.6,14.9,13.9
		S180.2,90.1,180.2,90.1z"/>
	<path class="st6" d="M153.9,91.3c0,0-3.8-5.9-4.8-0.8c-1,5.1,3,7.4,4.8,7.2S153.9,91.3,153.9,91.3z"/>
	<path class="st6" d="M178.7,91.3c0,0,3.8-5.9,4.8-0.8c1,5.1-3,7.4-4.8,7.2C176.9,97.5,178.7,91.3,178.7,91.3z"/>
	<polygon class="st5" points="154.7,102.9 154.7,115.6 165.4,125.5 177.5,115.2 177.5,103.3 	"/>
	<path class="st6" d="M153.1,87.4c0,0-0.6,11.8,0.4,15.6c1,3.8,7.2,11.8,12.2,13.6c5,1.7,11.8-8.6,13.4-12s0.9-17.9,0.9-17.9
		s-2.1-5-6.3-6.5C169.5,78.7,156.6,76,153.1,87.4z"/>
	<path class="st7" d="M161.1,93.7c0,0.9-0.4,1.6-0.9,1.6c-0.5,0-0.9-0.7-0.9-1.6s0.4-1.6,0.9-1.6C160.6,92.1,161.1,92.8,161.1,93.7z
		"/>
	<path class="st7" d="M172.8,93.7c0,0.9-0.4,1.6-0.9,1.6c-0.5,0-0.9-0.7-0.9-1.6s0.4-1.6,0.9-1.6C172.4,92.1,172.8,92.8,172.8,93.7z
		"/>
	<path class="st8" d="M163,98.3c-0.7-0.2-1.4,0.3-1.5,0.9c-0.2,0.7,0.3,1.4,0.9,1.5c0.2,0,0.4,0,0.6,0c0.4,0,0.8-0.1,1.1-0.4
		c1.1,1.4,3.2,1.5,4.5,0.4c0.1-0.1,0.2-0.2,0.3-0.3c0.3,0.2,0.6,0.3,1,0.3c0.7,0.2,1.4-0.3,1.5-0.9c0.2-0.7-0.3-1.4-0.9-1.5
		c-0.2,0-0.4,0-0.6,0"/>
	<line class="st1" x1="164.6" y1="106.1" x2="168.6" y2="106.1"/>
	<path class="st2" d="M152.7,90.3c0,0,0.1,3.8,1.4,2.8s1.7-7.5,0.6-8.4C153.6,83.9,152.7,88.3,152.7,90.3z"/>
	<path class="st2" d="M177.3,90.3c0,0,0.1,3.8,1.4,2.8c1.3-1,1.7-7.5,0.6-8.4C178.2,83.9,177.3,88.3,177.3,90.3z"/>
	<path class="st3" d="M152.7,87.2c0,0,0.4,0.4,0.4,0.5c1.9,1,6.1,2.8,13,3.2c4.9,0.2,9.7-1,14-3.4c0-0.5,0-0.8,0-0.8
		c-0.2-4.5-3.5-7.4-7.6-8.6c-4-1.1-8.3-0.9-12.2,0.6c-2,0.7-3.7,2-5.1,3.6C154.7,82.9,152,86.6,152.7,87.2z"/>
	<path class="st3" d="M153.1,87.4c4.3,0.9,8.6,1.3,13,0.9c8.2-0.4,13.9-0.9,13.9-0.9c-3.8,3.5-8.6,5.7-13.8,6.1
		C161.1,93.8,156.2,91.6,153.1,87.4z"/>
	<polygon class="st2" points="132.2,144.8 133.5,154.4 143.8,156.9 154.3,152.6 153.6,144.1 	"/>
	<path class="st3" d="M145,152.6c0-1-0.8-1.8-1.8-1.8c-1,0-1.8,0.8-1.8,1.8c0,1,0.8,1.8,1.8,1.8c0,0,0,0,0,0
		C144.2,154.4,145,153.6,145,152.6z"/>
	<rect x="134.3" y="190.3" class="st3" width="60.6" height="9.5"/>
	<path class="st3" d="M132.8,190.9H146c1.5,0,2.7,1.2,2.7,2.7v6.4c0,1.5-1.2,2.7-2.7,2.7h-13.2c-1.5,0-2.7-1.2-2.7-2.7v-6.4
		C130.1,192,131.3,190.9,132.8,190.9z"/>
	<path class="st3" d="M181.1,190.9h13.2c1.5,0,2.7,1.2,2.7,2.7v6.4c0,1.5-1.2,2.7-2.7,2.7h-13.2c-1.5,0-2.7-1.2-2.7-2.7v-6.4
		C178.4,192,179.6,190.9,181.1,190.9z"/>
	<rect x="159" y="190.9" class="st6" width="13.2" height="8.4"/>
	<path class="st1" d="M117.5,170.4c0,0-8.4-0.6-11.5-5.9"/>
	<ellipse class="st9" cx="211.1" cy="131.1" rx="13.9" ry="14.6"/>
	<ellipse class="st2" cx="211.1" cy="123.7" rx="10.9" ry="9.8"/>
	<ellipse class="st8" cx="211.1" cy="116.5" rx="10.9" ry="9.8"/>
	<path class="st6" d="M193.6,95.5c0,0,0.2,14.4,0.9,18.6c0.7,4.2,3.7,9.8,7.8,9.8c2.7-0.1,5.4-0.6,7.9-1.5c0,0,4.8,2.6,9.4,1.8
		s3.9-7.2,3.9-10s-0.5-23.6-0.5-23.6s0.4-2-1.5-2.4c-0.9-0.2-1.8-0.3-2.8-0.4v-4.4c-0.7-1-1.9-1.6-3.1-1.5c-2.4,0-2.6,0.6-2.6,0.6
		v-4.1c0,0-2-3.2-4.6-1.7c-1.1,0.6-1.8,1.7-1.8,2.9l-0.2,3.9c0,0-4.4-1.7-4.8,0.9s-1.1,18.5-1.1,18.5c-0.3-2.5-0.8-5-1.5-7.4
		C198.1,93.3,193.6,93.3,193.6,95.5z"/>
	<line class="st10" x1="206.4" y1="83.7" x2="206.7" y2="100.6"/>
	<line class="st10" x1="213" y1="82.6" x2="213.2" y2="100.8"/>
	<line class="st10" x1="218.7" y1="87.9" x2="218.3" y2="100.6"/>
	<line class="st10" x1="204" y1="100.4" x2="220.7" y2="101.2"/>
	<path class="st1" d="M200.5,103c0,1.4,0.7,2.7,1.8,3.6c1.8,1.1,5.9,4.1,6.4,8.9"/>
</g>
<g id="Text">
	<path class="st7" d="M267.6,41.5v5h-12.3v17.9h15.1v5.1h-20.7V19.1h20.7v5.1h-15.1v17.2H267.6z"/>
	<path class="st7" d="M286.8,19.1c7.9,0,11.2,4,11.2,11.5v4.1c0,5.6-2,9-6.3,10.4c4.6,1.4,6.3,5.1,6.3,10.5v7.9c0,2.2,0.1,4.3,1,6
		h-5.7c-0.6-1.4-0.9-2.7-0.9-6.1v-7.9c0-5.7-2.7-7.5-7.4-7.5h-4v21.6h-5.6V19.1H286.8z M285.4,42.9c4.5,0,7.1-1.4,7.1-6.9v-4.8
		c0-4.5-1.7-6.9-5.8-6.9h-5.5v18.7L285.4,42.9z"/>
	<path class="st7" d="M315.2,19.1c7.9,0,11.2,4,11.2,11.5v4.1c0,5.6-2,9-6.3,10.4c4.6,1.4,6.3,5.1,6.3,10.5v7.9c0,2.2,0.1,4.3,1,6
		h-5.7c-0.6-1.4-0.9-2.7-0.9-6.1v-7.9c0-5.7-2.7-7.5-7.4-7.5h-4v21.6h-5.6V19.1H315.2z M313.8,42.9c4.5,0,7.1-1.4,7.1-6.9v-4.8
		c0-4.5-1.7-6.9-5.8-6.9h-5.5v18.7L313.8,42.9z"/>
	<path class="st7" d="M331.9,31.3c0-7.7,3.8-12.7,11.5-12.7s11.6,5,11.6,12.7v26.1c0,7.6-3.8,12.7-11.6,12.7s-11.5-5-11.5-12.7V31.3
		z M337.5,57.7c0,4.6,1.9,7.3,6,7.3s6-2.7,6-7.3V31c0-4.5-1.9-7.3-6-7.3s-6,2.7-6,7.3V57.7z"/>
	<path class="st7" d="M371.6,19.1c7.9,0,11.2,4,11.2,11.5v4.1c0,5.6-1.9,9-6.3,10.4c4.6,1.4,6.3,5.1,6.3,10.5v7.9c0,2.2,0.1,4.3,1,6
		h-5.7c-0.6-1.4-0.9-2.7-0.9-6.1v-7.9c0-5.7-2.7-7.5-7.4-7.5h-4v21.6h-5.6V19.1H371.6z M370.2,42.9c4.5,0,7.1-1.4,7.1-6.9v-4.8
		c0-4.5-1.7-6.9-5.8-6.9H366v18.7L370.2,42.9z"/>
	<path class="st7" d="M266.1,196.9v-25.2h-26.3v-13.4L263.9,81h17.8v75.7h7.9v15h-7.9v25.2L266.1,196.9z M254.3,156.7h11.8v-39.7h-1
		l-0.9,3.5L254.3,156.7z"/>
	<path class="st7" d="M320.3,198.1c-4.4,0.1-8.6-1-12.3-3.3c-3.4-2.2-6.1-5.3-7.7-9c-1.8-4-2.7-8.4-2.6-12.8v-68.2
		c-0.1-4.4,0.9-8.8,2.7-12.8c1.7-3.7,4.4-6.8,7.9-9c10.2-6.7,23.9-3.8,30.6,6.4c0.6,0.9,1.1,1.8,1.5,2.7c1.9,4,2.8,8.3,2.7,12.7V173
		c0.1,4.4-0.9,8.8-2.7,12.8C336.7,193.6,328.8,198.4,320.3,198.1L320.3,198.1z M320.3,181.6c1.8,0.1,3.5-0.9,4.3-2.6
		c0.9-1.8,1.4-3.9,1.3-6v-68.3c0.1-2.1-0.4-4.1-1.3-6c-1.3-2.4-4.3-3.2-6.7-1.9c-0.8,0.5-1.5,1.2-2,2c-0.9,1.8-1.4,3.8-1.3,5.9V173
		c0,2.1,0.4,4.1,1.3,5.9C316.7,180.7,318.4,181.7,320.3,181.6L320.3,181.6z"/>
	<path class="st7" d="M362.7,196.9V106h-11.4V95.2c3.9-0.7,7.6-2.4,10.7-4.8c3.2-2.5,5.7-5.7,7.4-9.4h10.2v115.9H362.7z"/>
</g>
<g id="Security_Barrier">
	<polygon class="st11" points="48.1,375.5 33.8,375.5 52.8,243 67.1,243 	"/>
	<polygon class="st12" points="76.6,375.5 90.8,375.5 71.8,243 57.6,243 	"/>
	<polygon class="st11" points="250.4,375.5 236.1,375.5 255.1,243 269.4,243 	"/>
	<polygon class="st12" points="278.9,375.5 293.2,375.5 274.1,243 259.9,243 	"/>
	<rect x="16.9" y="222.2" class="st2" width="271.9" height="26.4"/>
	<rect x="23.6" y="222.2" class="st13" width="271.9" height="26.4"/>
	<polygon class="st7" points="28,248.6 51.1,248.6 63,222.2 40,222.2 	"/>
	<polygon class="st7" points="119.4,222.2 96.3,222.2 84.4,248.6 107.4,248.6 	"/>
	<polygon class="st7" points="288.4,222.2 265.3,222.2 253.4,248.6 276.5,248.6 	"/>
	<polygon class="st7" points="232.1,222.2 209,222.2 197.1,248.6 220.1,248.6 	"/>
	<polygon class="st7" points="175.7,222.2 152.6,222.2 140.7,248.6 163.8,248.6 	"/>
	<line class="st14" x1="294" y1="233.9" x2="249" y2="233.9"/>
	<line class="st14" x1="293.2" y1="238.4" x2="286.1" y2="238.4"/>
	<line class="st14" x1="22.4" y1="237.2" x2="67.4" y2="237.2"/>
	<line class="st14" x1="23.2" y1="232.3" x2="80.1" y2="232.3"/>
	<rect x="292.6" y="369.8" class="st2" width="77.1" height="5.8"/>
	<polygon class="st4" points="356.7,369.6 305.6,369.6 325.6,260.6 336.7,260.6 	"/>
	<polygon class="st6" points="318.2,301.1 344.1,301.1 341.6,287.6 320.7,287.6 	"/>
	<line class="st1" x1="349" y1="351.4" x2="350.3" y2="358.9"/>
	<line class="st1" x1="334.4" y1="266.7" x2="347.4" y2="342"/>
</g>
<g id="Floor">
	<line class="st10" x1="411.2" y1="375.5" x2="418.1" y2="375.5"/>
	<line class="st10" x1="0.6" y1="375.5" x2="401.6" y2="375.5"/>
</g>
</svg>
