<svg xmlns="http://www.w3.org/2000/svg" viewBox="0 0 455.14 389.88"><defs><style>.cls-1,.cls-19,.cls-2{fill:#e2e2e2;}.cls-2{opacity:0.7;}.cls-3{fill:#bfbfbf;}.cls-15,.cls-18,.cls-4,.cls-6{fill:none;}.cls-12,.cls-13,.cls-15,.cls-16,.cls-18,.cls-19,.cls-4,.cls-6,.cls-7,.cls-9{stroke:#263238;}.cls-4{stroke-miterlimit:10;}.cls-10,.cls-12,.cls-13,.cls-15,.cls-16,.cls-19,.cls-4,.cls-7,.cls-9{stroke-width:1.26px;}.cls-10,.cls-12,.cls-5{fill:#212529;}.cls-10,.cls-12,.cls-13,.cls-15,.cls-16,.cls-18,.cls-19,.cls-6,.cls-7,.cls-9{stroke-linecap:round;stroke-linejoin:round;}.cls-6{stroke-width:2.51px;}.cls-17,.cls-7{fill:#263238;}.cls-8{fill:#616161;}.cls-14,.cls-9{fill:#385e5d;}.cls-10{stroke:#212529;}.cls-11,.cls-13{fill:#fff;}.cls-16{fill:#bdbdbd;}.cls-18{stroke-width:1.07px;}</style></defs><g id="Background_Simple" data-name="Background Simple"><path class="cls-1" d="M24.89,267.6s3.64,74.59,66.63,122.46,149.19,48.81,219,51.42,122.72-38.6,129.8-98.67-46.49-76-76.53-143.24S336,109.89,274.09,69.86,117,58.46,68,131.74,24.89,267.6,24.89,267.6Z" transform="translate(-15.75 -51.71)"/><path class="cls-2" d="M24.89,267.6s3.64,74.59,66.63,122.46,149.19,48.81,219,51.42,122.72-38.6,129.8-98.67-46.49-76-76.53-143.24S336,109.89,274.09,69.86,117,58.46,68,131.74,24.89,267.6,24.89,267.6Z" transform="translate(-15.75 -51.71)"/></g><g id="Plants"><path class="cls-3" d="M396.73,372.86s-3.4-14.45-.85-27.21,8.5-4.25,15.31-12.76,3.4-24.66,11.05-31.47,18.71-5.95,21.26-18.71,4.26-23,9.36-21.26-4.25,17-4.25,26.37,5.1,15.3,1.7,24.66-17.86,5.95-17.86,17,5.95,22.11.85,29.77-18.71,9.35-20.41,13.6-6,11.91-10.21,11.91S396.73,372.86,396.73,372.86Z" transform="translate(-15.75 -51.71)"/><path class="cls-3" d="M394,373c.85-2.55-.85-24.66-8.5-28.91s-16.16-2.55-20.41-10.21-4.26-11.05-8.51-11.9-24.66-4.26-22.11,0,17.86-2.56,17.86,5.95-1.7,22.11,3.4,25.51,18.71,2.55,17.86,10.21-3.4,10.2.85,12.76,16.16,13.6,17.86,5.1Z" transform="translate(-15.75 -51.71)"/><path class="cls-4" d="M403.43,391.77s-4-12.39,6.93-35.17,18.82-40.11,23.77-49" transform="translate(-15.75 -51.71)"/><path class="cls-4" d="M394.51,393.75s-1.48-5.95-6.44-22.29-10.89-20.8-19.31-26.25-8.91-14.36-10.4-16.84" transform="translate(-15.75 -51.71)"/><path class="cls-3" d="M415.31,384.83s1-8.91,8.92-11.39,15.35-1.48,16.84-6.93,1.48-10.9,4.95-13.87,7.92-4.46,8.42-3-5,2.48-5,7.43,7.43,17.33-3.46,22.28-19.81.5-23.77,4-6.44,5.94-6.44,5.94Z" transform="translate(-15.75 -51.71)"/><path class="cls-4" d="M414.32,393.75s3.47-12.88,11.89-15.85S444,381.37,448,375.42s1-11.88.49-15.84" transform="translate(-15.75 -51.71)"/><path class="cls-5" d="M419.89,391.77h-30.7a2.47,2.47,0,0,0-2.48,2.47h0a2.48,2.48,0,0,0,2.48,2.48h.25l2.39,6.27a2.57,2.57,0,0,0,2.4,1.65h20.63a2.58,2.58,0,0,0,2.4-1.65l2.39-6.27h.24a2.48,2.48,0,0,0,2.48-2.48h0A2.47,2.47,0,0,0,419.89,391.77Z" transform="translate(-15.75 -51.71)"/></g><g id="Server"><path class="cls-6" d="M129,338.54a23.83,23.83,0,0,1,17.68,4.4c8.17,6.28,14.38,22.25,17.59,44.61s5,32,23.87,35.18,64.09,1.89,91.1,1.26,25.76-25.76,3.15-28.27-38.27,3.52-61.86-1.7,21-12.13,54.94-7.1,49,6.28,67.23,4.4" transform="translate(-15.75 -51.71)"/><path class="cls-6" d="M129,305.1s18.31.14,23.33,19,6.91,45.24,7.54,66,1.26,38.33,25.13,43.35,88.59,3.14,106.18-.63,37.07-20.73,22.62-24.5-34.56,0-27,5,27.65,3.77,51.52.63" transform="translate(-15.75 -51.71)"/><path class="cls-6" d="M132.76,370.69s11.19-1,15.56,11.67-1,15.56,1.46,21.88,17.78.42,17.71,5.66c-.07,4.78-6.13,6.13-41.05,4.07-45.66-2.69-75.87,4.38-73.44,8.76s38.91,1,30.15,7.78-30.15-1-46.69-1.46S17,432.45,17,432.45" transform="translate(-15.75 -51.71)"/><rect class="cls-7" x="4.86" y="140.33" width="117.06" height="215.4" rx="3.56"/><rect class="cls-8" x="7.66" y="172.6" width="111.41" height="82.51"/><rect class="cls-8" x="7.66" y="268.52" width="111.41" height="82.51"/><rect class="cls-9" x="42" y="278.57" width="63.25" height="64.5"/><rect class="cls-9" x="42" y="181.81" width="63.25" height="15.92"/><rect class="cls-9" x="42" y="212.39" width="63.25" height="15.92"/><polygon class="cls-10" points="103.13 174.45 101.91 177.79 45.88 177.79 44.66 174.45 32.79 174.45 32.79 189.16 44.66 189.16 45.88 185.82 101.91 185.82 103.13 189.16 116.57 189.16 116.57 174.45 103.13 174.45"/><polygon class="cls-10" points="103.13 190.5 101.91 193.85 45.88 193.85 44.66 190.5 32.79 190.5 32.79 205.22 44.66 205.22 45.88 201.87 101.91 201.87 103.13 205.22 116.57 205.22 116.57 190.5 103.13 190.5"/><polygon class="cls-10" points="103.13 206.56 101.91 209.9 45.88 209.9 44.66 206.56 32.79 206.56 32.79 221.27 44.66 221.27 45.88 217.93 101.91 217.93 103.13 221.27 116.57 221.27 116.57 206.56 103.13 206.56"/><polygon class="cls-10" points="103.13 222.61 101.91 225.96 45.88 225.96 44.66 222.61 32.79 222.61 32.79 237.33 44.66 237.33 45.88 233.98 101.91 233.98 103.13 237.33 116.57 237.33 116.57 222.61 103.13 222.61"/><polygon class="cls-10" points="103.13 238.66 101.91 242.01 45.88 242.01 44.66 238.66 32.79 238.66 32.79 253.38 44.66 253.38 45.88 250.04 101.91 250.04 103.13 253.38 116.57 253.38 116.57 238.66 103.13 238.66"/><polygon class="cls-10" points="103.13 270.77 101.91 274.12 45.88 274.12 44.66 270.77 32.79 270.77 32.79 285.49 44.66 285.49 45.88 282.15 101.91 282.15 103.13 285.49 116.57 285.49 116.57 270.77 103.13 270.77"/><polygon class="cls-10" points="103.13 286.83 101.91 290.17 45.88 290.17 44.66 286.83 32.79 286.83 32.79 301.55 44.66 301.55 45.88 298.2 101.91 298.2 103.13 301.55 116.57 301.55 116.57 286.83 103.13 286.83"/><polygon class="cls-10" points="103.13 302.88 101.91 306.23 45.88 306.23 44.66 302.88 32.79 302.88 32.79 317.6 44.66 317.6 45.88 314.26 101.91 314.26 103.13 317.6 116.57 317.6 116.57 302.88 103.13 302.88"/><polygon class="cls-10" points="103.13 318.94 101.91 322.28 45.88 322.28 44.66 318.94 32.79 318.94 32.79 333.65 44.66 333.65 45.88 330.31 101.91 330.31 103.13 333.65 116.57 333.65 116.57 318.94 103.13 318.94"/><polygon class="cls-10" points="103.13 334.99 101.91 338.34 45.88 338.34 44.66 334.99 32.79 334.99 32.79 349.71 44.66 349.71 45.88 346.37 101.91 346.37 103.13 349.71 116.57 349.71 116.57 334.99 103.13 334.99"/><rect class="cls-11" x="9.9" y="257.68" width="106.65" height="10.05"/><path class="cls-12" d="M34.65,314.31a2.81,2.81,0,1,0-2.81,2.81A2.81,2.81,0,0,0,34.65,314.31Z" transform="translate(-15.75 -51.71)"/><circle class="cls-9" cx="25.45" cy="262.59" r="2.81"/><path class="cls-12" d="M53.37,314.31a2.81,2.81,0,1,0-2.81,2.81A2.81,2.81,0,0,0,53.37,314.31Z" transform="translate(-15.75 -51.71)"/><rect class="cls-11" x="9.9" y="161.34" width="106.65" height="10.05"/><path class="cls-13" d="M34.65,218a2.81,2.81,0,1,0-2.81,2.81A2.81,2.81,0,0,0,34.65,218Z" transform="translate(-15.75 -51.71)"/><path class="cls-9" d="M44,218a2.81,2.81,0,1,0-2.81,2.81A2.81,2.81,0,0,0,44,218Z" transform="translate(-15.75 -51.71)"/><path class="cls-13" d="M53.37,218a2.81,2.81,0,1,0-2.81,2.81A2.81,2.81,0,0,0,53.37,218Z" transform="translate(-15.75 -51.71)"/><rect class="cls-11" x="9.9" y="148.41" width="106.65" height="10.05"/><path class="cls-9" d="M34.65,205.05a2.81,2.81,0,1,0-2.81,2.81A2.81,2.81,0,0,0,34.65,205.05Z" transform="translate(-15.75 -51.71)"/><path class="cls-12" d="M44,205.05a2.81,2.81,0,1,0-2.81,2.81A2.81,2.81,0,0,0,44,205.05Z" transform="translate(-15.75 -51.71)"/><path class="cls-12" d="M53.37,205.05a2.81,2.81,0,1,0-2.81,2.81A2.81,2.81,0,0,0,53.37,205.05Z" transform="translate(-15.75 -51.71)"/><rect class="cls-12" x="10.17" y="174.69" width="17.59" height="7.54"/><rect class="cls-12" x="10.17" y="191.03" width="17.59" height="7.54"/><rect class="cls-9" x="10.17" y="207.36" width="17.59" height="7.54"/><rect class="cls-9" x="10.17" y="223.7" width="17.59" height="7.54"/><rect class="cls-9" x="10.17" y="240.03" width="17.59" height="7.54"/><rect class="cls-9" x="10.17" y="270.61" width="17.59" height="7.54"/><rect class="cls-12" x="10.17" y="286.95" width="17.59" height="7.54"/><rect class="cls-9" x="10.17" y="303.28" width="17.59" height="7.54"/><rect class="cls-12" x="10.17" y="319.62" width="17.59" height="7.54"/><rect class="cls-9" x="10.17" y="335.95" width="17.59" height="7.54"/></g><g id="Character"><path class="cls-13" d="M190.84,146.36s-16.86,4.29-21.54,10.7-23.65,50-23.65,50-6.15,6.9.5,13.55,19.95,9.11,24.88,3.2,12.06-33.75,13.05-36.95,8.37-30.3,9.11-31.77S194.64,147.24,190.84,146.36Z" transform="translate(-15.75 -51.71)"/><path class="cls-12" d="M190.84,146.36s-16.86,4.29-21.54,10.7c-2.83,3.87-10.89,21.37-16.82,34.58,2.88-.58,14.88-2.36,28.93,4.72,1.35-4.72,2.35-8.45,2.67-9.5,1-3.2,8.37-30.3,9.11-31.77S194.64,147.24,190.84,146.36Z" transform="translate(-15.75 -51.71)"/><path class="cls-13" d="M240.24,89.57a16.14,16.14,0,0,1,6.65,7.14c2,4.68,2,11.82,2,11.82s31.53-1,43.6-1.23,20.2,2.71,20.44,8.62-2.46,17.49-9.11,21.92-27.34-2.71-37.93-5.66-14.29-2-21.92-3-9.86-3.94-11.09-8.62,1.23-13.55,1.23-20.69S233.1,88.09,240.24,89.57Z" transform="translate(-15.75 -51.71)"/><path class="cls-13" d="M286.3,119.86s-4.43,11.33-12.56,17.49c-5.83,4.42-13.7,6.94-17.67,8-14.21-4-34.27-5.88-46-3.28,0,0-16.38,3.92-19.23,4.28s-9.62,23.15-11.05,38.82,3.21,54.5,3.21,57.35,1.78,50.23,4.63,63.41,6.06,31,6.41,33.48,2.85,21,2.85,27.07S194,387.15,194,387.15s-12.82,8.55-17.81,13.53,3.67,10.24,10,11.4c10.74,2,23.5-8.55,23.5-8.55L224,397.84c3.79-1.52,4.91-5.59,5-9.24l.66-26.38q3.36,14,5.52,28.29c.58,3.9,1.18,8,3.53,11.15a15.18,15.18,0,0,0,4.94,4.39c1.42.66,2.93.52,4.36,1.34,2.63,1.52,3.71,4.8,6.26,6.45a33.51,33.51,0,0,0,18.17,4.65s14.24.72,15-7.12-18.53-20.66-18.53-20.66-2.85-52-5-69.1-7.84-44.88-7.84-57,5.7-69.11,5.7-69.11.58-1.5,1.47-3.94l.94-.52c8.13-4.68,30.79-22.91,38.18-34.49,7.08-11.08,9.64-31.87,9.84-37.95" transform="translate(-15.75 -51.71)"/><path class="cls-12" d="M287.37,411.37c.71-7.84-18.53-20.66-18.53-20.66s-.22-4-.58-10.15a143.77,143.77,0,0,1-34.08,4q.51,3,1,6c.58,3.9,1.18,8,3.53,11.15a15.18,15.18,0,0,0,4.94,4.39c1.42.66,2.93.52,4.36,1.34,2.63,1.52,3.71,4.8,6.26,6.45a33.51,33.51,0,0,0,18.17,4.65S286.65,419.21,287.37,411.37Z" transform="translate(-15.75 -51.71)"/><path class="cls-12" d="M224,397.84c3.79-1.52,4.91-5.59,5-9.24,0-1.38.07-2.76.1-4.14a157.47,157.47,0,0,1-33.69-4.82c-.68,4.16-1.34,7.51-1.34,7.51s-12.82,8.55-17.81,13.53,3.67,10.24,10,11.4c10.74,2,23.5-8.55,23.5-8.55Z" transform="translate(-15.75 -51.71)"/><path class="cls-12" d="M287.37,411.37c.71-7.84-18.53-20.66-18.53-20.66s-.22-4-.58-10.15a143.77,143.77,0,0,1-34.08,4q.51,3,1,6c.58,3.9,1.18,8,3.53,11.15a15.18,15.18,0,0,0,4.94,4.39c1.42.66,2.93.52,4.36,1.34,2.63,1.52,3.71,4.8,6.26,6.45a33.51,33.51,0,0,0,18.17,4.65S286.65,419.21,287.37,411.37Z" transform="translate(-15.75 -51.71)"/><path class="cls-12" d="M224,397.84c3.79-1.52,4.91-5.59,5-9.24,0-1.38.07-2.76.1-4.14a157.47,157.47,0,0,1-33.69-4.82c-.68,4.16-1.34,7.51-1.34,7.51s-12.82,8.55-17.81,13.53,3.67,10.24,10,11.4c10.74,2,23.5-8.55,23.5-8.55Z" transform="translate(-15.75 -51.71)"/><path class="cls-13" d="M287.37,411.37c0-.11,0-.23,0-.35a24.49,24.49,0,0,1-10.61,4.3c-11.26,2-21.52-3.75-24.27-6.25s-4.5-4.51-8.76-7.26-8.11-9.52-8.11-9.52l-.16.25c.53,3.25,1.27,6.5,3.22,9.12a15.18,15.18,0,0,0,4.94,4.39c1.42.66,2.93.52,4.36,1.34,2.63,1.52,3.71,4.8,6.26,6.45a33.51,33.51,0,0,0,18.17,4.65S286.65,419.21,287.37,411.37Z" transform="translate(-15.75 -51.71)"/><path class="cls-13" d="M224,397.84c3.31-1.33,4.58-4.59,4.92-7.82-3.28,2-10.86,6.37-15.67,8.29-6.25,2.5-10.51,10-22.76,10-8.74,0-13.53-3.42-15.56-5.39-1.08,4.22,6,8.17,11.32,9.16,10.74,2,23.5-8.55,23.5-8.55Z" transform="translate(-15.75 -51.71)"/><path class="cls-12" d="M270.23,139.67a61.36,61.36,0,0,1-14.16,5.69c-14.21-4-34.27-5.88-46-3.28,0,0-16.38,3.92-19.23,4.28s-9.62,23.15-11.05,38.82c-.88,9.68.55,28.16,1.77,41.57,29.69,10.88,61.35,7.15,76.83,4.19,1.56-17.76,3.33-35.43,3.33-35.43s.58-1.5,1.47-3.94l.94-.52c5.53-3.18,17.75-12.61,27.34-22C272.22,163.5,269.89,148.32,270.23,139.67Z" transform="translate(-15.75 -51.71)"/><path class="cls-14" d="M242.63,156.66a19,19,0,0,0-8.1-15.19c-9.1-.88-18-.82-24.46.61,0,0-4.53,1.09-9.24,2.16a18.35,18.35,0,0,0-5,12.42c0,11.11,10.48,20.12,23.4,20.12S242.63,167.77,242.63,156.66Z" transform="translate(-15.75 -51.71)"/><path class="cls-13" d="M235.62,392.29a42.6,42.6,0,0,0,16.66,2.34c12.29-.53,16.56-3.92,16.56-3.92s-2.85-52-5-69.1-7.84-44.88-7.84-57c0-7.14,2-29.87,3.61-47.33l-.77.09a14.35,14.35,0,0,1-16-14.68l.34-11.37a148.24,148.24,0,0,1-27.79-.8c-16.56-1.87-33.66-7.48-33.66-7.48l-1.8.55c0,.53-.11,1.06-.16,1.58-1.42,15.68,3.21,54.5,3.21,57.35s1.78,50.23,4.63,63.41,6.06,31,6.41,33.48,2.85,21,2.85,27.07-2.74,20.12-2.84,20.63c2.14.67,6.62,2,14.69,4.3,12.28,3.48,20.21-.71,20.21-.71,0-4.27.71-28.49.71-28.49S234.16,382.71,235.62,392.29Z" transform="translate(-15.75 -51.71)"/><polygon class="cls-15" points="179.18 146.34 211.17 151.6 211.17 171.32 193.2 189.29 178.74 171.76 179.18 146.34"/><path class="cls-15" d="M218,308.94c-2.31-13-4-25.84-4-35.06l-12.82-8.55" transform="translate(-15.75 -51.71)"/><path class="cls-15" d="M229.66,362.22s-5.4-20.87-9.86-43.73" transform="translate(-15.75 -51.71)"/><path class="cls-15" d="M239.19,251.73a13.31,13.31,0,0,0,1.32,3.3c4,7,9.64,7.89,9.64,7.89l.88-18.41" transform="translate(-15.75 -51.71)"/><path class="cls-15" d="M240.51,241a15.67,15.67,0,0,0-1.45,4.21" transform="translate(-15.75 -51.71)"/><path class="cls-15" d="M256.22,297c.46,2.43.93,4.82,1.39,7.1" transform="translate(-15.75 -51.71)"/><path class="cls-15" d="M250.15,262.92s2.26,13.51,4.87,27.67" transform="translate(-15.75 -51.71)"/><path class="cls-13" d="M208,134.5,207.8,145s-3.62,2.9-4.34,10.5,6.52,14.67,14.66,14.67,15.21-6.34,16.48-12.13-.37-14.12-.37-14.12l-.54-12.67s-8,5.06-15.57,3.62-9.77-4.17-9.77-4.17Z" transform="translate(-15.75 -51.71)"/><path class="cls-16" d="M202.31,107.1s-.49,6,.81,7.47,3.09,2.6,3.42,1.3.48-8.12.81-9.58S202.47,103,202.31,107.1Z" transform="translate(-15.75 -51.71)"/><path class="cls-13" d="M205.49,107S204,119,204,124.81s-2.25,8,5,11.78,13.53,4.26,18.54,2.5,7.77-6,8-9.52.25-9,.25-9,7-6.26,5.52-11-4.76,1.25-4.76,1.25a38.69,38.69,0,0,0,2-12.78c-.25-6.52-5.26-7.27-7.27-7.27S217,87,211.25,90.72,205.49,107,205.49,107Z" transform="translate(-15.75 -51.71)"/><path class="cls-12" d="M236.57,110.77a38.69,38.69,0,0,0,2-12.78c-.25-6.52-5.26-7.27-7.27-7.27h-.13c-1.06,1.78-2.37,4.52-2.37,4.52l1,.5s-1,5.52,1,6.27,1,2.5,1,5.51,1.76,5.26,2.76,5.26c.79,0,2-2,2.54-2.87C236.77,110.39,236.57,110.77,236.57,110.77Z" transform="translate(-15.75 -51.71)"/><path class="cls-15" d="M216.77,111.49s-2.11,1.94-1.14,3.41,4.55,2.27,5.53.48a3,3,0,0,0-.65-3.73" transform="translate(-15.75 -51.71)"/><path class="cls-17" d="M214.5,109.54c0,1-.4,1.78-.9,1.78s-.89-.8-.89-1.78.4-1.79.89-1.79S214.5,108.55,214.5,109.54Z" transform="translate(-15.75 -51.71)"/><path class="cls-17" d="M225.3,110c0,1-.4,1.79-.89,1.79s-.9-.8-.9-1.79.4-1.78.9-1.78S225.3,109,225.3,110Z" transform="translate(-15.75 -51.71)"/><path class="cls-15" d="M222.62,105.15s3.41-2.28,6.66,1.3" transform="translate(-15.75 -51.71)"/><path class="cls-13" d="M217.44,121.14a3.39,3.39,0,0,0-2.78-.12,2.87,2.87,0,0,0-1.62,1.74s-2.08,1.67.11,2.4,7,.68,8.21.63a1.87,1.87,0,0,0,1.6-2.07,1.12,1.12,0,0,0-.51-1A4,4,0,0,0,217.44,121.14Z" transform="translate(-15.75 -51.71)"/><path class="cls-18" d="M212.57,123.39a23.55,23.55,0,0,1,10.09.6" transform="translate(-15.75 -51.71)"/><path class="cls-9" d="M201.23,93.23,228.05,97s11.27-3,12.28-5.26-2.76-13.53-4.77-16.29-21.3,2-27.32,3S197.72,80.94,198,84,201.23,93.23,201.23,93.23Z" transform="translate(-15.75 -51.71)"/><path class="cls-13" d="M201.23,93.23S185.94,105.76,185.69,107s22.3,1.75,29.32.25,13-10.28,13-10.28Z" transform="translate(-15.75 -51.71)"/><path class="cls-9" d="M184.52,259.36l42-24.63a8.28,8.28,0,0,0,12.91-8.95l-8.77,5.13-2-3.45,8.78-5.14a8.28,8.28,0,0,0-14.13,6.88l-42.05,24.63a8.28,8.28,0,0,0-12.91,8.95l8.54-5,2,3.46-8.54,5a8.27,8.27,0,0,0,14.12-6.88Z" transform="translate(-15.75 -51.71)"/><path class="cls-19" d="M220.29,241.05s5.17,3.7,5.17,7.14-6.16,7.15-10.34,7.39-4.93-4.43-4.19-6.89S220.29,241.05,220.29,241.05Z" transform="translate(-15.75 -51.71)"/><path class="cls-13" d="M166.1,210.26s28.57,16,32.51,15.52,9.36-3.94,12.32-3,11.08,13.55,11.82,15.77-5.91,10.1-7.39,11.33-6.16,6.16-7.14,6.65-7.39,6.16-10.59,6.16-8.62-2.47-9.12-3.7.74-2.95.74-2.95l-15-6.9s-28.58-15.52-33.5-23.4,7.39-21.92,7.39-21.92" transform="translate(-15.75 -51.71)"/><path class="cls-15" d="M199.11,248.93a4,4,0,0,1,3.44,3.45c.5,3.2-.74,8.87-.74,8.87" transform="translate(-15.75 -51.71)"/><path class="cls-15" d="M204.77,244.25s3.45.25,3.45,3.45v8.87" transform="translate(-15.75 -51.71)"/><path class="cls-15" d="M208.47,235.39s6.4,4.68,6.89,7.39a31.36,31.36,0,0,1,0,7.14" transform="translate(-15.75 -51.71)"/><path class="cls-13" d="M237,218.5c1.44,0,5.25-9.54,5.25-13.12s1.67-29.81,5.49-42c2.74-8.73,5.1-15.47,6.22-18.6-2.91-.74-6-1.4-9.22-2-1.91,5.79-7.74,23.86-10.12,35.35-2.86,13.83-2.15,30.29-1.91,31.72S235.59,218.5,237,218.5Z" transform="translate(-15.75 -51.71)"/><rect class="cls-13" x="232.25" y="189.64" width="10.73" height="9.06" rx="1.23" transform="matrix(0.99, 0.13, -0.13, 0.99, 11.85, -81.29)"/><rect class="cls-13" x="234.25" y="191.33" width="6.73" height="5.69" rx="1.23" transform="translate(11.86 -81.29) rotate(7.56)"/><path class="cls-13" d="M183.59,214.92c1.44,0,5.25-9.54,5.25-13.12s1.67-29.81,5.49-42c2.42-7.72,4.07-12.65,5-15.22-3.73.84-7.27,1.61-8.45,1.76-.88.11-2.12,2.34-3.47,5.82-1.58,4.9-3.51,11.27-5,17.48a128.67,128.67,0,0,0-2.55,15.52,132,132,0,0,0-.07,15.73q0,.27.06.42C180,202.76,182.16,214.92,183.59,214.92Z" transform="translate(-15.75 -51.71)"/><rect class="cls-13" x="179.06" y="182.25" width="10.73" height="9.06" rx="1.23" transform="translate(5.11 -70.23) rotate(6.09)"/><rect class="cls-13" x="181.06" y="183.93" width="6.73" height="5.69" rx="1.23" transform="translate(5.11 -70.23) rotate(6.09)"/></g><g id="Capa_6" data-name="Capa 6"><g id="Text"><path class="cls-5" d="M354.09,86.12v5H341.77v17.94H356.9v5.12H336.16V63.78H356.9V68.9H341.77V86.12Z" transform="translate(-15.75 -51.71)"/><path class="cls-5" d="M373.33,63.78c7.92,0,11.24,4,11.24,11.53v4.11c0,5.55-1.95,9-6.27,10.37,4.61,1.37,6.34,5.12,6.34,10.52v7.86c0,2.23.07,4.32,1,6H380c-.65-1.44-.94-2.74-.94-6.13v-7.92c0-5.69-2.67-7.5-7.35-7.5h-4v21.55H362V63.78Zm-1.44,23.78c4.46,0,7.13-1.44,7.13-6.92V75.82c0-4.54-1.66-6.92-5.83-6.92h-5.48V87.56Z" transform="translate(-15.75 -51.71)"/><path class="cls-5" d="M401.71,63.78c7.92,0,11.24,4,11.24,11.53v4.11c0,5.55-1.95,9-6.27,10.37,4.61,1.37,6.34,5.12,6.34,10.52v7.86c0,2.23.07,4.32,1,6h-5.7c-.64-1.44-.93-2.74-.93-6.13v-7.92c0-5.69-2.67-7.5-7.35-7.5h-4v21.55h-5.62V63.78Zm-1.44,23.78c4.46,0,7.13-1.44,7.13-6.92V75.82c0-4.54-1.66-6.92-5.84-6.92h-5.47V87.56Z" transform="translate(-15.75 -51.71)"/><path class="cls-5" d="M418.43,76c0-7.71,3.82-12.68,11.53-12.68s11.6,5,11.6,12.68V102c0,7.64-3.82,12.68-11.6,12.68s-11.53-5-11.53-12.68ZM424,102.33c0,4.61,1.94,7.28,6,7.28s6-2.67,6-7.28V75.71c0-4.54-1.88-7.27-6-7.27s-6,2.73-6,7.27Z" transform="translate(-15.75 -51.71)"/><path class="cls-5" d="M458.12,63.78c7.93,0,11.24,4,11.24,11.53v4.11c0,5.55-1.94,9-6.26,10.37,4.61,1.37,6.33,5.12,6.33,10.52v7.86c0,2.23.08,4.32,1,6h-5.72c-.64-1.44-.93-2.74-.93-6.13v-7.92c0-5.69-2.67-7.5-7.35-7.5h-4v21.55h-5.61V63.78Zm-1.41,23.78c4.47,0,7.14-1.44,7.14-6.92V75.82c0-4.54-1.66-6.92-5.84-6.92h-5.48V87.56Z" transform="translate(-15.75 -51.71)"/><path class="cls-5" d="M355.62,231.43a21.92,21.92,0,0,1-10.38-2.17,15.23,15.23,0,0,1-6.3-6.27,29.74,29.74,0,0,1-3.12-9.84,84.51,84.51,0,0,1-.88-12.81h15.84v4.06a55.94,55.94,0,0,0,.73,9.8q.74,4.06,4.11,4.07a3.4,3.4,0,0,0,3.22-2,14.16,14.16,0,0,0,1.33-5.15q.29-3.15.29-6.58v-23a15,15,0,0,0-.84-5.43,3.32,3.32,0,0,0-3.41-2.14,4.5,4.5,0,0,0-4,2.25,12.2,12.2,0,0,0-1.84,5.32H336V127.36h38.27v15H349.61v22.13a14,14,0,0,1,3.63-2.91,12.27,12.27,0,0,1,6.12-1.29,16.17,16.17,0,0,1,9.27,2.55,15.73,15.73,0,0,1,5.72,7.32,30.11,30.11,0,0,1,1.95,11.42v23a55.92,55.92,0,0,1-.92,10.33,25.17,25.17,0,0,1-3.19,8.58,16.13,16.13,0,0,1-6.31,5.85A21.84,21.84,0,0,1,355.62,231.43Z" transform="translate(-15.75 -51.71)"/><path class="cls-5" d="M402.26,231.43a21.32,21.32,0,0,1-11.48-2.94,19,19,0,0,1-7.19-8,25.7,25.7,0,0,1-2.45-11.31V148.51a24.88,24.88,0,0,1,2.53-11.34,19.33,19.33,0,0,1,7.29-8,21.09,21.09,0,0,1,11.3-2.94,20.81,20.81,0,0,1,11.33,3,19.8,19.8,0,0,1,7.26,8,24.86,24.86,0,0,1,2.53,11.27v60.65a24.7,24.7,0,0,1-2.57,11.31,19.65,19.65,0,0,1-7.3,8A20.86,20.86,0,0,1,402.26,231.43Zm0-14.7a4.26,4.26,0,0,0,4-2.28,10.86,10.86,0,0,0,1.25-5.29V148.51a10.79,10.79,0,0,0-1.25-5.32,4.7,4.7,0,0,0-8.07.1,11,11,0,0,0-1.24,5.22v60.65a10.85,10.85,0,0,0,1.24,5.29A4.26,4.26,0,0,0,402.26,216.73Z" transform="translate(-15.75 -51.71)"/><path class="cls-5" d="M449.77,231.43a21.29,21.29,0,0,1-11.47-2.94,18.93,18.93,0,0,1-7.19-8,25.57,25.57,0,0,1-2.46-11.31V148.51a25,25,0,0,1,2.53-11.34,19.42,19.42,0,0,1,7.3-8,21.08,21.08,0,0,1,11.29-2.94,20.78,20.78,0,0,1,11.33,3,19.66,19.66,0,0,1,7.26,8,24.73,24.73,0,0,1,2.53,11.27v60.65a24.69,24.69,0,0,1-2.56,11.31,19.78,19.78,0,0,1-7.3,8A20.9,20.9,0,0,1,449.77,231.43Zm0-14.7a4.27,4.27,0,0,0,4-2.28,10.85,10.85,0,0,0,1.24-5.29V148.51a10.78,10.78,0,0,0-1.24-5.32,4.29,4.29,0,0,0-4-2.24,4.23,4.23,0,0,0-4,2.34,11,11,0,0,0-1.25,5.22v60.65a10.86,10.86,0,0,0,1.25,5.29A4.25,4.25,0,0,0,449.77,216.73Z" transform="translate(-15.75 -51.71)"/></g></g></svg>