<svg id="Capa_4" data-name="Capa 4" xmlns="http://www.w3.org/2000/svg" viewBox="0 0 794 794"><defs><style>.cls-1{fill:#2f4f4f;}.cls-2{fill:#fff;}</style></defs><circle class="cls-1" cx="397" cy="397" r="397"/><circle class="cls-2" cx="181.29" cy="517.75" r="40.01"/><path class="cls-2" d="M754.36,460.29c-18.1-10.33-37.28-18-57-24.53-23.22-7.72-46.57-15-69.78-22.76a92.29,92.29,0,0,1-27.46-14.27c-8.17-6.31-13.59-14.31-14.62-24.81-1.52-15.41,5.67-27.54,21.46-34.6,17.63-7.88,36.3-9.26,55.36-7.36,25.59,2.56,45.65,13.78,58.52,36.66a45,45,0,0,0,6.75,9c12,12.43,26.89,15.43,42.89,11.23,15.46-4.06,24.32-15,27.75-30.75,3.25-14.92-1.09-27.94-8.86-40.22-17.62-27.86-42.18-46.55-74.18-55-35.64-9.48-71.68-9.69-107.9-4.06-19.69,3-38.58,8.66-56.1,18.32-25,13.75-42.8,33.53-51.19,61.21-14.93,49.31,1.62,97.41,43.76,126.93,20.24,14.18,42.73,23.81,65.87,32,22.18,7.83,44.59,15,66.84,22.62,10.28,3.52,20.07,8.17,28.74,14.84,9,6.91,14.8,15.71,15.64,27.31,1.36,18.63-8.13,32.44-27.84,39.23-22,7.58-44.35,7.11-66.94,2.59-23.3-4.67-43.6,9.37-47.87,32.54-4,21.78,10.64,41,34,45.41,14,2.64,28.09,2.84,36.87,3.17,36.27.41,66.46-3.64,94.77-16.88,41.06-19.19,64.06-51.34,67.64-96.7C815.4,522.65,797.55,485,754.36,460.29Z" transform="translate(-353 -73)"/><rect class="cls-2" x="578.17" y="308.56" width="66.29" height="211.73" rx="33.15"/><rect class="cls-2" x="931.17" y="381.56" width="66.29" height="211.73" rx="33.15" transform="translate(123.89 1378.74) rotate(-90)"/></svg>