<svg id="Capa_3" data-name="Capa 3" xmlns="http://www.w3.org/2000/svg" viewBox="0 0 1461.62 196.56"><defs><style>.cls-1{fill:#fff;}</style></defs><path class="cls-1" d="M697.82,695.38V624.17c0-1.71-.05-3.42,0-5.13.44-11.44,6.23-17.45,17.6-17.56q28.54-.29,57.1,0A17.41,17.41,0,0,1,790.1,619a17.78,17.78,0,0,1-17.42,18.43c-9.61.28-19.24,0-28.86.09-4.65,0-4.75.11-4.78,4.5q-.09,15.4,0,30.8c0,4.46.13,4.56,4.69,4.57q31.42.06,62.87,0c2.35,0,4.7,0,7,0,10.44.32,17.58,7.35,17.6,17.25s-7.09,17.2-17.52,17.28c-22.24.18-44.48,0-66.72.09-8.93,0-7.94-1.1-8,7.73,0,9.41,0,18.82,0,28.23,0,6,.05,6,5.94,6q34.63,0,69.28,0c1.93,0,3.86-.06,5.77.07a17.45,17.45,0,0,1,16.5,15.87c.87,9-4.16,16.62-12.64,19.16a28.35,28.35,0,0,1-8.25.94q-48.75,0-97.51,0a36.72,36.72,0,0,1-6.38-.43c-7.79-1.37-12.09-5.63-13.45-13.42a44.41,44.41,0,0,1-.45-7.66Q697.78,731.94,697.82,695.38Z" transform="translate(-22.38 -598.09)"/><path class="cls-1" d="M92.64,793.14a110.12,110.12,0,0,1-16.72-1.44c-10.62-2-17.27-10.73-15.44-20.6,1.94-10.52,11.14-16.89,21.72-14.77,10.25,2,20.4,2.27,30.37-1.17,8.94-3.09,13.24-9.35,12.63-17.8-.38-5.27-3-9.26-7.1-12.39a44.91,44.91,0,0,0-13-6.74C95,714.77,84.8,711.52,74.74,708c-10.5-3.7-20.71-8.07-29.89-14.5C25.73,680.07,18.22,658.25,25,635.88c3.8-12.56,11.9-21.53,23.22-27.78a76.52,76.52,0,0,1,25.45-8.31c16.44-2.55,32.79-2.45,49,1.84,14.52,3.86,25.66,12.34,33.66,25,3.52,5.57,5.49,11.48,4,18.25-1.56,7.14-5.58,12.11-12.6,13.95-7.25,1.91-14,.55-19.45-5.09a20.09,20.09,0,0,1-3.06-4.1c-5.85-10.38-15-15.47-26.56-16.63-8.64-.86-17.12-.23-25.12,3.34-7.16,3.2-10.42,8.71-9.73,15.7.46,4.76,2.93,8.39,6.63,11.25a41.72,41.72,0,0,0,12.46,6.48c10.53,3.51,21.13,6.82,31.66,10.33a141.17,141.17,0,0,1,25.84,11.13c19.6,11.19,27.7,28.29,26,50.38-1.63,20.58-12.06,35.17-30.69,43.88C122.8,791.48,109.1,793.32,92.64,793.14Z" transform="translate(-22.38 -598.09)"/><path class="cls-1" d="M1414.21,793.25c-8-.21-14.83-.35-21.59-1.66-10.31-2-16.66-11.05-14.71-21.17a18.06,18.06,0,0,1,21-14.26c8,1.61,16,2.27,24.17.78a34.93,34.93,0,0,0,10.31-3.36c10.82-5.82,12.49-19.08,3.44-27.4-4-3.69-8.85-6-13.91-7.74-10.28-3.58-20.66-6.86-30.93-10.48s-20.25-8-29.35-14.13c-18.44-12.5-26.22-31.82-20.94-55.53,2.84-12.79,10.56-22.22,21.67-28.93a74.74,74.74,0,0,1,27.67-9.58c16.43-2.53,32.77-2.46,48.94,1.85,14.51,3.88,25.61,12.39,33.65,25a24.86,24.86,0,0,1,4.38,14.48c-.29,8.34-4.57,14.78-11.82,17.34a19.43,19.43,0,0,1-21.52-5.72,21.39,21.39,0,0,1-2.21-3.14c-5.7-10.14-14.54-15.2-25.92-16.51a51,51,0,0,0-24,2.51c-5.85,2.19-10.47,5.75-11.26,12.66-.83,7.2,2.19,12.39,8.06,16.21,5.61,3.65,11.85,5.85,18.16,7.89,12.59,4.07,25.37,7.55,37.61,12.67a100.85,100.85,0,0,1,15.36,7.91c18.15,11.56,25.26,28.51,23.09,49.34-2.61,25.18-17.93,41.53-43.91,47.91a101.73,101.73,0,0,1-12.59,2.32C1422.46,793,1417.74,793.06,1414.21,793.25Z" transform="translate(-22.38 -598.09)"/><path class="cls-1" d="M536.81,724.93c9.29-19,18.37-37.66,27.46-56.27,2.81-5.76,5.82-11.43,8.41-17.3,5.13-11.65,17.72-13.59,25.78-9.91,10,4.57,14.18,15.92,9.36,26.56-3.88,8.56-8.32,16.86-12.54,25.27q-21.16,42.09-42.34,84.18a89.31,89.31,0,0,1-4.17,7.94c-6,9.41-18.31,9.54-24.59.32a40.66,40.66,0,0,1-2.43-4.51q-37.59-74.73-75.17-149.47c-1.05-2.1-2.18-4.18-3-6.36a19.3,19.3,0,0,1,32.59-19.75c2.15,2.45,3.47,5.37,4.89,8.24Q507,666.46,533,719C534,720.91,534.52,723,536.81,724.93Z" transform="translate(-22.38 -598.09)"/><path class="cls-1" d="M1219.9,695.36c0,25.23,0,50.47,0,75.71,0,9.88-5.22,17.38-13.69,20.38a20.48,20.48,0,0,1-27.28-17.24,69,69,0,0,1-.15-7.05q0-61.27,0-122.54c0-8,.87-7.13-7.24-7.16-11.54,0-23.1.14-34.64-.06-10.18-.17-17.87-7.46-18.33-16.92a17.64,17.64,0,0,1,16.79-18.92c5.55-.32,11.12-.15,16.68-.15,16.25,0,32.51-.06,48.76,0,12.5.06,19.34,7,19.36,19.51q0,37.21,0,74.42Z" transform="translate(-22.38 -598.09)"/><path class="cls-1" d="M1045.21,619.86c-12.38-12.53-27.43-18.45-44.93-18.45-23.09,0-46.18.35-69.25-.14-13.87-.3-20.87,6.07-20.75,21,.41,48.94.15,97.88.16,146.83,0,1.71-.05,3.42.06,5.13a19.74,19.74,0,0,0,38.64,4.35,30.09,30.09,0,0,0,1.07-8.87c0-13.89.06-27.78-.07-41.68,0-3.19.77-4.52,4.28-4.43,9,.23,18,.29,26.92,0,3.75-.13,5.81,1.28,7.72,4.26,4.37,6.84,8.93,13.57,13.62,20.19,6.42,9.08,17.12,11.31,25.85,5.6s11-17,5-26.52c-2.26-3.57-4.69-7-7.17-10.72,1.32-.73,2.22-1.29,3.17-1.74C1069.84,695.36,1070.18,645.14,1045.21,619.86Zm-24.41,52.36c-4.25,11.1-13.1,17.1-24.55,17.75-14.28.82-28.64.19-43,.35-3.41,0-3.09-2.05-3.09-4.21q0-18.29,0-36.56c0-3.21.17-6.43,0-9.62s.88-4.14,4-4.06c7.05.19,14.11.06,21.17.06V636c7,0,14.13-.34,21.16.06C1014.87,637.13,1027.22,655.47,1020.8,672.22Z" transform="translate(-22.38 -598.09)"/><path class="cls-1" d="M391.41,726.69c-20.08-38.42-39.35-77.27-58.76-116-3.19-6.37-7.17-11.36-14.79-11.38s-11.63,4.87-14.84,11.27Q271.71,673,240.1,735.26c-4.92,9.73-10,19.39-14.65,29.22-5.61,11.78.48,24.77,12.79,27.82,8.63,2.14,17.48-1.92,21.91-10.52q6.9-13.38,13.13-27.09c1.48-3.25,3.37-4.23,6.85-4.19,16,.19,32.07.09,48.1.09h44.26c1.5,0,3,0,4.49,0C390.92,750.71,396.44,736.33,391.41,726.69Zm-100.09-8.36c8.49-18.3,17.39-35.75,26.48-54.63,9.13,18.72,17.67,36.21,26.66,54.63Z" transform="translate(-22.38 -598.09)"/><circle class="cls-1" cx="18.15" cy="152.31" r="18.15"/><circle class="cls-1" cx="1336.39" cy="152.31" r="18.15"/><circle class="cls-1" cx="1224.08" cy="21.85" r="18.15"/><circle class="cls-1" cx="370.97" cy="177.27" r="18.15"/><circle class="cls-1" cx="587.65" cy="18.45" r="18.15"/><circle class="cls-1" cx="796.39" cy="21.85" r="18.15"/><circle class="cls-1" cx="1018.74" cy="178.4" r="18.15"/></svg>