<svg id="Capa_3_copia" data-name="Capa 3 copia" xmlns="http://www.w3.org/2000/svg" viewBox="0 0 787.62 105.92"><defs><style>.cls-1{fill:#2f4f4f;}</style></defs><path class="cls-1" d="M723.35,975.84V937.47c0-.93,0-1.85,0-2.77.24-6.17,3.36-9.4,9.49-9.46q15.38-.16,30.77,0a9.39,9.39,0,0,1,9.46,9.42,9.58,9.58,0,0,1-9.39,9.93c-5.18.15-10.37,0-15.55,0-2.5,0-2.56.06-2.57,2.43q-.06,8.3,0,16.59c0,2.41.06,2.46,2.52,2.47q16.95,0,33.88,0c1.27,0,2.54,0,3.8,0,5.63.18,9.48,4,9.48,9.3s-3.81,9.27-9.44,9.31c-12,.1-24,0-35.95,0-4.81,0-4.28-.59-4.3,4.16q0,7.6,0,15.21c0,3.22,0,3.25,3.2,3.25H786.1c1,0,2.07,0,3.11,0a9.66,9.66,0,0,1,2.07,18.88,15.46,15.46,0,0,1-4.44.51q-26.28,0-52.55,0a19.65,19.65,0,0,1-3.43-.23c-4.2-.73-6.52-3-7.25-7.23a23.69,23.69,0,0,1-.25-4.13Q723.35,995.55,723.35,975.84Z" transform="translate(-359.38 -923.41)"/><path class="cls-1" d="M397.24,1028.51a60.07,60.07,0,0,1-9-.77c-5.72-1.08-9.3-5.78-8.32-11.1a9.65,9.65,0,0,1,11.71-8c5.52,1.11,11,1.22,16.36-.63,4.82-1.66,7.14-5,6.81-9.59a9,9,0,0,0-3.83-6.68,24.28,24.28,0,0,0-7-3.63c-5.44-1.87-10.92-3.61-16.35-5.53a65.86,65.86,0,0,1-16.1-7.81c-10.3-7.22-14.35-19-10.7-31,2-6.77,6.41-11.6,12.52-15A41,41,0,0,1,387,924.33a63.43,63.43,0,0,1,26.38,1,30,30,0,0,1,18.14,13.46c1.9,3,3,6.19,2.17,9.83-.84,3.85-3,6.53-6.79,7.52a10.15,10.15,0,0,1-10.49-2.74,11,11,0,0,1-1.64-2.21c-3.15-5.59-8.06-8.34-14.31-9a26.1,26.1,0,0,0-13.54,1.8c-3.86,1.72-5.61,4.69-5.25,8.46a8.57,8.57,0,0,0,3.58,6.06A22.37,22.37,0,0,0,392,962c5.68,1.89,11.39,3.68,17.06,5.56a76.63,76.63,0,0,1,13.93,6c10.56,6,14.92,15.25,14,27.15-.87,11.09-6.5,19-16.53,23.65C413.49,1027.62,406.11,1028.61,397.24,1028.51Z" transform="translate(-359.38 -923.41)"/><path class="cls-1" d="M1109.39,1028.57a69.85,69.85,0,0,1-11.63-.89,9.6,9.6,0,0,1-7.93-11.41,9.74,9.74,0,0,1,11.34-7.68,34.23,34.23,0,0,0,13,.42,18.73,18.73,0,0,0,5.55-1.81,8.87,8.87,0,0,0,1.86-14.77,20.92,20.92,0,0,0-7.5-4.17c-5.54-1.93-11.13-3.69-16.66-5.65a68.63,68.63,0,0,1-15.82-7.61c-9.94-6.73-14.13-17.15-11.28-29.92,1.53-6.89,5.69-12,11.68-15.59a40.1,40.1,0,0,1,14.9-5.16,63.6,63.6,0,0,1,26.38,1,30.17,30.17,0,0,1,18.13,13.47,13.48,13.48,0,0,1,2.36,7.8c-.15,4.49-2.46,8-6.37,9.35a10.5,10.5,0,0,1-11.6-3.08,11.78,11.78,0,0,1-1.19-1.7c-3.07-5.46-7.84-8.19-14-8.89a27.35,27.35,0,0,0-12.92,1.35c-3.15,1.18-5.64,3.09-6.07,6.82s1.18,6.68,4.34,8.74a40.73,40.73,0,0,0,9.79,4.25c6.78,2.19,13.67,4.07,20.26,6.82a54.45,54.45,0,0,1,8.28,4.27c9.78,6.22,13.61,15.36,12.45,26.58-1.41,13.57-9.67,22.38-23.67,25.82a53.9,53.9,0,0,1-6.78,1.25C1113.84,1028.45,1111.29,1028.47,1109.39,1028.57Z" transform="translate(-359.38 -923.41)"/><path class="cls-1" d="M636.59,991.76l14.8-30.32c1.51-3.11,3.14-6.16,4.53-9.32a10.43,10.43,0,0,1,13.89-5.34c5.38,2.46,7.64,8.58,5.05,14.31-2.09,4.61-4.49,9.09-6.76,13.61q-11.4,22.69-22.82,45.37c-.72,1.44-1.39,2.92-2.25,4.28a7.71,7.71,0,0,1-13.24.17,20.3,20.3,0,0,1-1.31-2.43Q608.22,981.82,588,941.54c-.57-1.13-1.17-2.25-1.64-3.42a10.41,10.41,0,0,1,17.57-10.65,20.14,20.14,0,0,1,2.63,4.45q14,28.32,28,56.66A7.88,7.88,0,0,0,636.59,991.76Z" transform="translate(-359.38 -923.41)"/><path class="cls-1" d="M1004.68,975.83c0,13.59,0,27.19,0,40.79,0,5.33-2.81,9.37-7.38,11a11,11,0,0,1-14.7-9.29,37.07,37.07,0,0,1-.08-3.8q0-33,0-66c0-4.28.47-3.84-3.9-3.85-6.22,0-12.45.07-18.67,0-5.48-.09-9.63-4-9.88-9.11a9.51,9.51,0,0,1,9.05-10.2c3-.17,6-.08,9-.08,8.76,0,17.52,0,26.28,0,6.73,0,10.42,3.77,10.43,10.52q0,20,0,40.1Z" transform="translate(-359.38 -923.41)"/><path class="cls-1" d="M910.55,935.14a32.67,32.67,0,0,0-24.21-9.94c-12.44,0-24.88.19-37.32-.08-7.47-.16-11.25,3.28-11.18,11.3.22,26.37.08,52.74.09,79.12,0,.92,0,1.84,0,2.76a10.64,10.64,0,0,0,20.82,2.35,16.07,16.07,0,0,0,.58-4.78c0-7.49,0-15,0-22.46,0-1.72.41-2.44,2.31-2.39,4.83.13,9.67.16,14.51,0a4.21,4.21,0,0,1,4.15,2.3q3.54,5.52,7.34,10.88c3.46,4.89,9.23,6.09,13.93,3s5.93-9.17,2.68-14.29c-1.21-1.92-2.52-3.78-3.86-5.77.71-.4,1.2-.7,1.71-.94C923.82,975.83,924,948.76,910.55,935.14ZM897.4,963.36a14.27,14.27,0,0,1-13.23,9.56c-7.7.44-15.44.1-23.15.19-1.84,0-1.67-1.11-1.67-2.27q0-9.86,0-19.7c0-1.73.09-3.46,0-5.18s.48-2.24,2.15-2.19c3.8.1,7.61,0,11.41,0v0c3.8,0,7.61-.19,11.4,0C894.2,944.45,900.86,954.33,897.4,963.36Z" transform="translate(-359.38 -923.41)"/><path class="cls-1" d="M558.24,992.71c-10.82-20.7-21.2-41.64-31.66-62.53-1.72-3.43-3.87-6.13-8-6.13s-6.27,2.62-8,6.07q-16.87,33.64-33.91,67.21c-2.65,5.24-5.37,10.44-7.89,15.74a10.45,10.45,0,1,0,18.7,9.32c2.47-4.8,4.83-9.68,7.08-14.6a3.4,3.4,0,0,1,3.69-2.25c8.63.1,17.28.05,25.92.05h26.26C558,1005.65,561,997.9,558.24,992.71Zm-53.93-4.5c4.57-9.87,9.37-19.27,14.26-29.44,4.93,10.08,9.52,19.51,14.37,29.44Z" transform="translate(-359.38 -923.41)"/><circle class="cls-1" cx="9.78" cy="82.08" r="9.78"/><circle class="cls-1" cx="720.14" cy="82.08" r="9.78"/><circle class="cls-1" cx="659.61" cy="11.77" r="9.78"/><circle class="cls-1" cx="199.9" cy="95.52" r="9.78"/><circle class="cls-1" cx="316.66" cy="9.94" r="9.78"/><circle class="cls-1" cx="429.15" cy="11.77" r="9.78"/><circle class="cls-1" cx="548.97" cy="96.14" r="9.78"/></svg>